<svg xmlns="http://www.w3.org/2000/svg" viewBox="0 0 310.88 87.36"><title>Ресурс 1</title><g id="Слой_2" data-name="Слой 2"><g id="Слой_1-2" data-name="Слой 1"><path d="M95.21,30.85h18.72a3.2,3.2,0,0,0,1.25-.18,1.39,1.39,0,0,0,.63-.78,2.77,2.77,0,0,1,.47-.84.69.69,0,0,1,.45-.16.63.63,0,0,1,.59.31,2.27,2.27,0,0,1,.13,1.22l-.25,3.85a10.6,10.6,0,0,1-.41,3.09.67.67,0,0,1-.51.26.82.82,0,0,1-.49-.16,1.28,1.28,0,0,1-.35-.6l-.63-1.76a4.43,4.43,0,0,0-1.35-2,3.15,3.15,0,0,0-2-.74h-3.94a1.18,1.18,0,0,0-.76.19.83.83,0,0,0-.2.65V54.79a5.35,5.35,0,0,0,.55,2.92,2.94,2.94,0,0,0,2.19.93,4.1,4.1,0,0,1,1.49.29.78.78,0,0,1,.12.49.65.65,0,0,1-.26.54,1.32,1.32,0,0,1-.78.2c-.66,0-1.63,0-2.91-.13s-2.26-.12-2.91-.12-1.64,0-3,.12-2.3.13-3,.13A1.45,1.45,0,0,1,97.3,60a.59.59,0,0,1-.28-.56.64.64,0,0,1,.17-.53A1.61,1.61,0,0,1,98,58.7c1.51-.1,2.45-.44,2.82-1a5.54,5.54,0,0,0,.55-2.92V33.22c0-.38-.12-.61-.36-.7a6.3,6.3,0,0,0-1.72-.14,8.64,8.64,0,0,0-4.54.89A8.37,8.37,0,0,0,92.29,36a6.73,6.73,0,0,1-.94,1.38.86.86,0,0,1-.61.26.62.62,0,0,1-.47-.2.77.77,0,0,1-.18-.52,2,2,0,0,1,0-.45c0-.17.11-.47.23-.9L92,29.93a1.61,1.61,0,0,1,.38-.7A.86.86,0,0,1,93,29a.72.72,0,0,1,.5.16,1.51,1.51,0,0,1,.25.84.83.83,0,0,0,.42.66A2,2,0,0,0,95.21,30.85Z"/><path d="M123.27,54.8V36.17a5,5,0,0,0-.62-3.05,3.91,3.91,0,0,0-2.65-.83,1.54,1.54,0,0,1-.66-.18.52.52,0,0,1-.22-.5c0-.31.09-.52.27-.61a2.15,2.15,0,0,1,1-.15c.61,0,1.46,0,2.54.06s2.16.06,3.21.06L133,31c1.07,0,2.45,0,4.12,0s2.8-.06,3.38-.11a6.07,6.07,0,0,1,1.15,0c.15,0,.22.28.22.72v.91l0,2.08v1.76a1.84,1.84,0,0,1-.17.92.61.61,0,0,1-.54.27.66.66,0,0,1-.46-.19,2.46,2.46,0,0,1-.46-.84,8.21,8.21,0,0,0-.92-1.72,5.46,5.46,0,0,0-1.13-1.2,5.14,5.14,0,0,0-2-.86,21.79,21.79,0,0,0-4.14-.27,10.91,10.91,0,0,0-2.88.25c-.48.16-.72.67-.72,1.52V42c0,.65.11,1.06.33,1.24a1.66,1.66,0,0,0,1,.25h3.39a5.23,5.23,0,0,0,2.45-.49,3.61,3.61,0,0,0,1.52-2.17,3.37,3.37,0,0,1,.49-1,.72.72,0,0,1,.57-.31.57.57,0,0,1,.5.24,1,1,0,0,1,.18.64c0,.14,0,.46-.1,1s-.11,1-.15,1.51-.09,1-.09,1.52.06,1.79.21,4a3.41,3.41,0,0,1-.07,1.46.6.6,0,0,1-.56.25.8.8,0,0,1-.6-.27,6.27,6.27,0,0,1-.71-1.81,3.87,3.87,0,0,0-1.56-2.44,7.39,7.39,0,0,0-3.29-.55h-2.23a1.69,1.69,0,0,0-1,.22c-.2.14-.3.51-.3,1.09v7.6a5.78,5.78,0,0,0,.87,3.63,3.77,3.77,0,0,0,3.05,1h2.27a9.22,9.22,0,0,0,2.18-.25,6.54,6.54,0,0,0,1.85-.71A6.12,6.12,0,0,0,140,56.4a13.77,13.77,0,0,0,1.53-2.62,4,4,0,0,1,.61-1,.76.76,0,0,1,.56-.2.52.52,0,0,1,.56.35,2.65,2.65,0,0,1-.05,1.2l-.31,1.45c-.06.36-.1.54-.1.54s-.11,1.09-.35,3.23c0,.39-.12.62-.24.7a7.91,7.91,0,0,1-1.9.11l-4.73,0c-2.45,0-4.22,0-5.3-.11s-2-.09-2.77-.09-2,0-3.61.12-2.81.12-3.63.12a1.57,1.57,0,0,1-.87-.18.62.62,0,0,1-.26-.56.67.67,0,0,1,.18-.5,1.3,1.3,0,0,1,.78-.21,3.7,3.7,0,0,0,2.61-.89A5.34,5.34,0,0,0,123.27,54.8Z"/><path d="M150.14,54.8V36.17a5.25,5.25,0,0,0-.58-3,3.57,3.57,0,0,0-2.61-.9,1.39,1.39,0,0,1-.8-.23.66.66,0,0,1-.16-.49.62.62,0,0,1,.22-.54,1.35,1.35,0,0,1,.83-.18c.62,0,1.57,0,2.83.13s2.22.12,2.86.12,1.58,0,2.84-.12,2.18-.13,2.79-.13a1.38,1.38,0,0,1,.86.18.65.65,0,0,1,.21.54.63.63,0,0,1-.19.5,1.35,1.35,0,0,1-.79.22,3.45,3.45,0,0,0-2.59.89,5.31,5.31,0,0,0-.58,3v6.91a.71.71,0,0,0,.15.53.73.73,0,0,0,.52.15h12.92a.89.89,0,0,0,.49-.09,1,1,0,0,0,.11-.59V36.17a5.35,5.35,0,0,0-.57-3,3.58,3.58,0,0,0-2.62-.9,1.4,1.4,0,0,1-.81-.23.7.7,0,0,1-.15-.49.62.62,0,0,1,.22-.54,1.41,1.41,0,0,1,.84-.18c.61,0,1.55,0,2.82.13s2.22.12,2.86.12,1.58,0,2.83-.12,2.19-.13,2.82-.13a1.37,1.37,0,0,1,.84.18.67.67,0,0,1,.2.54.67.67,0,0,1-.18.5,1.31,1.31,0,0,1-.78.22c-1.35.08-2.22.37-2.61.89a5.4,5.4,0,0,0-.58,3V54.8a5.44,5.44,0,0,0,.59,3,3.53,3.53,0,0,0,2.64.89,1.21,1.21,0,0,1,.74.18.69.69,0,0,1,.18.53.63.63,0,0,1-.24.56,1.39,1.39,0,0,1-.8.18c-.64,0-1.59,0-2.84-.13s-2.19-.12-2.81-.12-1.57,0-2.83.12-2.21.13-2.85.13a1.24,1.24,0,0,1-.79-.23.66.66,0,0,1-.27-.51.65.65,0,0,1,.17-.5,1.32,1.32,0,0,1,.79-.22c1.44-.11,2.34-.44,2.68-1a6,6,0,0,0,.51-2.92V46.11a1,1,0,0,0-.12-.62.71.71,0,0,0-.48-.12H156a.93.93,0,0,0-.59.12.8.8,0,0,0-.12.53v8.77a5.33,5.33,0,0,0,.59,3c.39.53,1.27.83,2.64.89a1.42,1.42,0,0,1,.7.17.6.6,0,0,1,.22.55.66.66,0,0,1-.24.54,1.31,1.31,0,0,1-.83.2c-.64,0-1.58,0-2.84-.13s-2.18-.12-2.79-.12-1.56,0-2.82.12-2.21.13-2.87.13a1.21,1.21,0,0,1-.75-.22.61.61,0,0,1-.3-.52.7.7,0,0,1,.17-.5,1.29,1.29,0,0,1,.79-.21c1.5-.13,2.41-.49,2.72-1.1A6.27,6.27,0,0,0,150.14,54.8Z"/><path d="M205.15,36.17V55.48a3.58,3.58,0,0,0,.59,2.35,2.84,2.84,0,0,0,2,.75h1l.34,0h.42a.52.52,0,0,1,.5.26,2,2,0,0,1,.13.87c0,.09,0,.2,0,.3s0,.28,0,.52,0,.35-.07.62,0,.46,0,.58l-.27,2.91a9.83,9.83,0,0,1-.46,2.92.75.75,0,0,1-.62.29.84.84,0,0,1-.92-.72s0,0,0,.06-.09-.62-.31-2a18.6,18.6,0,0,0-.63-2.84,3.52,3.52,0,0,0-.8-1.44,2.71,2.71,0,0,0-1.24-.59,10.57,10.57,0,0,0-2.23-.18h-1.13l-1.39,0-1.48,0h-9.95a22.49,22.49,0,0,0-3.19.16,4.59,4.59,0,0,0-1.7.57,4,4,0,0,0-1.38,1.48,9.25,9.25,0,0,0-.89,2.47l-.47,2a1.46,1.46,0,0,1-.36.82.94.94,0,0,1-.62.19.75.75,0,0,1-.61-.27,7.68,7.68,0,0,1-.23-2.7V62.61a32.89,32.89,0,0,1,.1-3.67.54.54,0,0,1,.54-.36l.22,0,.43,0h.63a3.91,3.91,0,0,0,3.14-2,24.84,24.84,0,0,0,2.51-6,64.07,64.07,0,0,0,1.87-7.74,40.9,40.9,0,0,0,.68-7.09,4.77,4.77,0,0,0-.49-2.61,2.45,2.45,0,0,0-1.9-.78,6,6,0,0,1-1.9-.32.66.66,0,0,1-.23-.56A.59.59,0,0,1,185,31a1,1,0,0,1,.65-.19c.5,0,1.22,0,2.18,0l2.18,0,1.92,0c.86,0,1.5,0,1.92,0h3.48c.6,0,1.49,0,2.68.07s2.08.06,2.68.06,1.4,0,2.65-.08,2.22-.07,2.93,0a1.6,1.6,0,0,1,.84.19.62.62,0,0,1,.2.53.75.75,0,0,1-.17.49.53.53,0,0,1-.42.23h-.37a5.11,5.11,0,0,0-1.49.21,2.35,2.35,0,0,0-1.06.6,2.05,2.05,0,0,0-.51,1A12,12,0,0,0,205.15,36.17ZM200,54V34.9c0-1.08-.23-1.75-.69-2a5.45,5.45,0,0,0-2.53-.41h-2.48a4.68,4.68,0,0,0-1.57.21,2.13,2.13,0,0,0-.91.63,2.51,2.51,0,0,0-.45,1,13.3,13.3,0,0,0-.22,2,63.8,63.8,0,0,1-.93,8,55.29,55.29,0,0,1-1.88,7.4c-.32,1-.68,2-1.08,3s-.72,1.86-1,2.4a.73.73,0,0,0-.09.58.89.89,0,0,0,.46.34,4.9,4.9,0,0,0,1.45.29,20.43,20.43,0,0,0,2.06.1h5.45a12,12,0,0,0,2.58-.2,2.39,2.39,0,0,0,1.15-.6,2.1,2.1,0,0,0,.5-1.07A16.51,16.51,0,0,0,200,54Z"/><path d="M216,54.8V36.17a5.09,5.09,0,0,0-.62-3.05,3.91,3.91,0,0,0-2.65-.83,1.64,1.64,0,0,1-.67-.18.54.54,0,0,1-.21-.5.64.64,0,0,1,.26-.61,2.18,2.18,0,0,1,1-.15c.61,0,1.46,0,2.54.06s2.15.06,3.21.06l6.9.05c1.08,0,2.45,0,4.12,0s2.8-.06,3.39-.11a6,6,0,0,1,1.14,0c.15,0,.23.28.23.72v.91l0,2.08v1.76a1.72,1.72,0,0,1-.18.92.58.58,0,0,1-.54.27.66.66,0,0,1-.46-.19,2.65,2.65,0,0,1-.46-.84,7.77,7.77,0,0,0-.92-1.72,5.44,5.44,0,0,0-1.12-1.2,5.19,5.19,0,0,0-2-.86,21.72,21.72,0,0,0-4.14-.27,10.82,10.82,0,0,0-2.87.25c-.49.16-.73.67-.73,1.52V42a1.15,1.15,0,0,0,1.33,1.49h3.4A5.29,5.29,0,0,0,228.3,43a3.6,3.6,0,0,0,1.51-2.17,3.9,3.9,0,0,1,.49-1,.76.76,0,0,1,.58-.31.58.58,0,0,1,.5.24,1.1,1.1,0,0,1,.17.64c0,.14,0,.46-.09,1s-.11,1-.15,1.51-.09,1-.1,1.52.07,1.79.22,4a3.59,3.59,0,0,1-.07,1.46.6.6,0,0,1-.56.25.8.8,0,0,1-.61-.27,6.38,6.38,0,0,1-.7-1.81,3.84,3.84,0,0,0-1.57-2.44,7.34,7.34,0,0,0-3.28-.55h-2.23a1.67,1.67,0,0,0-1,.22c-.21.14-.31.51-.31,1.09v7.6a5.78,5.78,0,0,0,.87,3.63,3.79,3.79,0,0,0,3.06,1h2.27a9.29,9.29,0,0,0,2.18-.25,6.54,6.54,0,0,0,1.85-.71,6.12,6.12,0,0,0,1.35-1.21,13.77,13.77,0,0,0,1.53-2.62,4.36,4.36,0,0,1,.6-1,.78.78,0,0,1,.57-.2.52.52,0,0,1,.56.35,2.8,2.8,0,0,1-.05,1.2l-.31,1.45c-.07.36-.1.54-.1.54s-.12,1.09-.35,3.23c0,.39-.12.62-.24.7a8,8,0,0,1-1.91.11l-4.72,0c-2.45,0-4.22,0-5.31-.11s-2-.09-2.76-.09-2,0-3.61.12-2.82.12-3.64.12a1.57,1.57,0,0,1-.87-.18.62.62,0,0,1-.25-.56.7.7,0,0,1,.17-.5,1.34,1.34,0,0,1,.79-.21,3.7,3.7,0,0,0,2.61-.89A5.34,5.34,0,0,0,216,54.8Z"/><path d="M242.86,54.8V36.17a5.72,5.72,0,0,0-.51-2.91,2.67,2.67,0,0,0-2-.93,6.07,6.07,0,0,1-1.45-.25c-.09-.07-.14-.24-.14-.51A.58.58,0,0,1,239,31a1.65,1.65,0,0,1,.79-.15c.66,0,1.63,0,2.93.09s2.26.08,2.9.08h.86l3.17-.16,1.53-.06,1.52,0q5.47,0,8.27,2.27A7.29,7.29,0,0,1,263.72,39a8.12,8.12,0,0,1-2.62,6.19,9.38,9.38,0,0,1-6.66,2.44,13.89,13.89,0,0,1-2.13-.16,13.65,13.65,0,0,1-2.23-.55c-.83-.28-1.29-.42-1.38-.43a1.14,1.14,0,0,0-.26,0,.37.37,0,0,0-.34.14,1.16,1.16,0,0,0-.11.61V54.8a5.66,5.66,0,0,0,.54,2.82c.35.6,1.44,1,3.27,1.09a1.37,1.37,0,0,1,.79.19.69.69,0,0,1,.17.52.61.61,0,0,1-.27.55,1.29,1.29,0,0,1-.77.19c-.69,0-1.69,0-3-.13s-2.33-.12-3-.12-1.64,0-3,.12-2.31.13-3,.13a1.3,1.3,0,0,1-.81-.2.68.68,0,0,1-.23-.54.62.62,0,0,1,.23-.53,1.37,1.37,0,0,1,.73-.18,3.82,3.82,0,0,0,2.51-.78C242.63,57.47,242.86,56.42,242.86,54.8ZM248,36.08V43.6a1.92,1.92,0,0,0,.15.86,1.14,1.14,0,0,0,.57.49,6.18,6.18,0,0,0,1.54.55,7.71,7.71,0,0,0,1.8.21,5.92,5.92,0,0,0,4.81-2,7.32,7.32,0,0,0,1.71-4.88,6.06,6.06,0,0,0-2-4.83,7.78,7.78,0,0,0-5.29-1.72,5.48,5.48,0,0,0-2,.29,1.89,1.89,0,0,0-1.05,1,2.85,2.85,0,0,0-.23.9C248,34.8,248,35.36,248,36.08Z"/><path d="M267.6,47.48h11.52l-.92,3H266.64Z"/><path d="M297.11,32.61l9.22,23.15A7.36,7.36,0,0,0,307.51,58a2.85,2.85,0,0,0,1.81.66,2.41,2.41,0,0,1,1.13.28.68.68,0,0,1,.24.56.52.52,0,0,1-.27.5,1.51,1.51,0,0,1-.79.16c-.59,0-1.46,0-2.61-.13s-2-.12-2.59-.12-1.58,0-2.85.12-2.23.13-2.87.13a2.09,2.09,0,0,1-1-.19.63.63,0,0,1-.32-.59.65.65,0,0,1,.33-.64,2.78,2.78,0,0,1,1.22-.16h.92a1.5,1.5,0,0,0,.89-.38,1,1,0,0,0,.28-.76,4.47,4.47,0,0,0-.05-.67,5.71,5.71,0,0,0-.24-.78l-2-5.36a2.54,2.54,0,0,0-.48-.79,1.15,1.15,0,0,0-.83-.28H290a2.23,2.23,0,0,0-.84.13c-.19.08-.36.35-.51.8l-1.54,4.66a4.62,4.62,0,0,0-.23.82,3.83,3.83,0,0,0-.07.73,1.62,1.62,0,0,0,.7,1.39,4.67,4.67,0,0,0,2.4.6,2.37,2.37,0,0,1,.94.15c.18.09.27.3.27.62a.56.56,0,0,1-.28.52,1.67,1.67,0,0,1-.89.18c-.47,0-1.18,0-2.12-.13s-1.65-.12-2.11-.12-1.13,0-2,.12-1.61.13-2.07.13a2,2,0,0,1-.95-.17.56.56,0,0,1-.28-.53.73.73,0,0,1,.25-.57,2.19,2.19,0,0,1,.9-.35l.59-.14a3.07,3.07,0,0,0,1.76-1,8.81,8.81,0,0,0,1.37-2.57l8.3-21.51c.17-.41.35-.9.55-1.47a9.94,9.94,0,0,1,.42-1.13,1.15,1.15,0,0,1,.37-.49,1,1,0,0,1,.55-.14.92.92,0,0,1,.51.13,4.63,4.63,0,0,1,.51.78ZM297.28,47l-3.44-9-.16-.45h-.09a.23.23,0,0,0-.11,0,1.24,1.24,0,0,0-.17.38L290,47a3.1,3.1,0,0,0-.14.46,1.49,1.49,0,0,0,0,.21.33.33,0,0,0,.09.26.72.72,0,0,0,.4.07h6.42a1.89,1.89,0,0,0,.58-.05.19.19,0,0,0,.08-.16,5.72,5.72,0,0,0,0-.58C297.32,47.09,297.3,47,297.28,47Z"/><path d="M64.66,52l0-.21h0a.09.09,0,0,1,.18,0c0,.62-.17,1.24-.25,1.86s-.13,1.25-.18,1.88c0,.19-.3.19-.29,0,0-.66.1-1.31.19-2A10.94,10.94,0,0,1,64.66,52Z"/><path d="M65.13,52.89a.42.42,0,0,1,0-.1c0-.06.12,0,.12,0a10.59,10.59,0,0,1-.15,1.38A8.67,8.67,0,0,1,65,55.45a.06.06,0,0,1,0,.06v.17c-.09-.08-.19-.13-.21-.2a12.47,12.47,0,0,1,.39-2.79Z"/><path d="M3,80.55C2.27,81.8,1.49,83,.82,84.31c-.16.31-.3.62-.44.93l0,0a.74.74,0,0,0,1,.16l.21-.15A7.34,7.34,0,0,0,.3,86.39.85.85,0,0,0,.11,87l1.57.34a25.47,25.47,0,0,0,2.57-1.87c.87-.46,1.76-.88,2.6-1.42.24-.16.48-.34.72-.52a.76.76,0,0,0,1,.5l2.81-1.25-.76.45a.65.65,0,0,0,.66,1.13c1.15-.58,2.3-1.2,3.45-1.82l.39,0c1.27-.79,2.57-1.53,3.91-2.2a.64.64,0,0,0,.86.45c1.11-.38,2.22-.75,3.33-1.09l-2.74,1.12-.37.15-1.08.44h0l-.16.07c-.71.3-.19,1.52.52,1.24l3.17-1.27c1.72-.62,3.46-1.15,5.21-1.64-.63.3-1.27.59-1.91.84l-2.22.7a.7.7,0,0,0,.37,1.35,13.67,13.67,0,0,0,3-1l2.06-.66.46-.1a.47.47,0,0,1,.57.42l.15,0a1.87,1.87,0,0,0,.34,0c-.58.18-1.17.37-1.76.54a.73.73,0,0,0-.36.25L29,83.44a.77.77,0,0,0,.26,0L32,82.72a.41.41,0,0,1,.34-.09c.78-.21,1.56-.42,2.34-.65l.34.1a.42.42,0,0,1,.23-.15A55.73,55.73,0,0,1,44,80.2L33.06,82.76a.74.74,0,0,0-.36.2.41.41,0,0,1,0,.25c0,.05,0,.09,0,.14a.45.45,0,0,1,.53.43c0,.15,0,.3,0,.45h.21q4.29-.9,8.55-1.89a.69.69,0,0,0,.57.13l1.58-.31h0A.78.78,0,0,0,45,83.3c.79-.18,1.58-.35,2.38-.5,0,0,0,0,0,.06a.75.75,0,0,0,1,1c.3-.15.6-.28.9-.42a20.16,20.16,0,0,1,4.15-1.19.47.47,0,0,0,.42.38l.9.11c-.23.35-.11.88.42.86a13.45,13.45,0,0,0,2.87-.48c3.33.33,6.65.6,10,1.26a.71.71,0,0,0,.9-.75l.32,0c-.45-.49-.91-1-1.4-1.42l-.65-.59s0,0,0,0a.17.17,0,0,0,.09-.24l-.71-1.41a.17.17,0,0,0,.29-.17l-1-2c0-.21-.07-.42-.12-.62A.14.14,0,0,0,66,77c.23.38.46.76.67,1.16l.47.91c.1.19.37,0,.28-.16s-.09-.17-.13-.26a.14.14,0,0,0,0-.06,27.34,27.34,0,0,0-1.61-2.91c-.23-.39-.47-.78-.71-1.16a4.69,4.69,0,0,1,1.55,1.64c.24.38.51.74.76,1.11s.63,1,1,1.43c.08.13.12.27.21.39,1.09,1.33,2.25,2.6,3.3,4l.05,0a.46.46,0,0,1,.53-.07l.14,0h.12l-.18-.31c-.18-.33-.39-.65-.54-1a19.63,19.63,0,0,0-2.52-3.72c-.33-.42-.81-.79-.93-1.25a1.76,1.76,0,0,0-.85-1,1.63,1.63,0,0,1-.3-.34l-.1-.14.3.24.07,0a11,11,0,0,1,2.4,2.55c.12.18.4,0,.29-.17L70,77.37c.23.24.45.49.68.74.39.55,1,1.4,1.69,2.21h0a.44.44,0,0,1,.12-.37l.13-.16a.63.63,0,0,1,.1-.27l-1-1.42c0-.06-5.55-6.34-6.81-7.19-1-.66-2.25-1.12-3.15-1.86-.58-.29-1.15-.57-1.72-.87-.19-.1-.37-.22-.57-.34.31-.55.57-1,.86-1.5a1.83,1.83,0,0,1,.94-.71c.63-.24,1.23-.55,1.84-.85.29-.14.58-.3.86-.46s.88-.47,1.28-.75a10.81,10.81,0,0,0,1.27-1.06,5.72,5.72,0,0,0,1.06-1.25,1.44,1.44,0,0,1,1.16-.81,4.76,4.76,0,0,0,2.9-1.6,4.15,4.15,0,0,0,.84-4.28c-.18-.6-.4-1.19-.57-1.79-.22-.76-.18-.84.47-1.3a1.21,1.21,0,0,0,.37-1.69c-.08-.15-.16-.3-.24-.48a.16.16,0,0,1,0-.11L72.31,49a1.54,1.54,0,0,0,1-1,1.81,1.81,0,0,0-.67-1.59s0-.06,0-.08c-.25-.57-.51-1.13-.78-1.69a.68.68,0,0,1-.22-.71,3,3,0,0,1,.53,0l1.68.39A1.26,1.26,0,0,0,75.15,44c.57-.7,1.15-1.4,1.66-2.14a1.73,1.73,0,0,0-.19-2.27c-1.48-1.8-3-3.61-4.44-5.4a6.32,6.32,0,0,0-1.07-.93A20.51,20.51,0,0,0,69.38,32a1.41,1.41,0,0,1-.67-1.55,3.41,3.41,0,0,0,.17-2.75c0-.12,0-.25-.06-.37l-.08-.12c-.53-.73-1.08-1.44-1.6-2.18a7.29,7.29,0,0,1-1-2,9.62,9.62,0,0,0-1.56-3.24A32.58,32.58,0,0,0,60.92,16c-.39-.35-.78-.71-1.13-1.09a.8.8,0,0,1-.21-.54c0-.67.12-1.34.2-2a7.31,7.31,0,0,0-1.37-5.47A3.16,3.16,0,0,0,55.6,5.61,8.43,8.43,0,0,0,53,6.33a.87.87,0,0,1-1.07-.13,8,8,0,0,0-1.14-.84A7.37,7.37,0,0,0,50,4.93a2.1,2.1,0,0,0-.65-.36.74.74,0,0,1-.67-.68c-.11-.46-.26-.92-.87-1-.15,0-.26-.22-.4-.33l-.32-.25h0c.11-.08,0-.28-.09-.23l-.13.06A5.73,5.73,0,0,0,44.22.86a4.29,4.29,0,0,1-.87-.23A10.55,10.55,0,0,0,39.58,0a21.25,21.25,0,0,0-3.9.19A13.3,13.3,0,0,1,34.12.4a.15.15,0,0,0-.24,0A8.72,8.72,0,0,1,32.53.35,2.29,2.29,0,0,0,32,.41a14.53,14.53,0,0,0-2.51.76,11.57,11.57,0,0,0-3.76,2,.14.14,0,0,0-.11.1A10.42,10.42,0,0,0,24,5.11c-.27.36-.63.64-.93,1q-.63.74-1.23,1.5a2.34,2.34,0,0,0-.19.33,10.05,10.05,0,0,0-2,.09,12,12,0,0,0-2.09.83,1.49,1.49,0,0,0-.54.4,56.88,56.88,0,0,0-4.63,5.62,4.07,4.07,0,0,1-.73,1A2.17,2.17,0,0,0,10.91,18a3.71,3.71,0,0,0,.27,1.09,1,1,0,0,1-.08,1,5,5,0,0,1-.26.46,3.49,3.49,0,0,0-.5,3.41c.13.43.12.9.49,1.24s.17.49-.06.71-.39.29-.46.49c-.16.4-.31.8-.46,1.21A7,7,0,0,0,8.3,30.92a4.19,4.19,0,0,0,.06,1.28c-1.35.12-2.13,1.91-2.17,3.11a4.21,4.21,0,0,0,.1,1,3.26,3.26,0,0,0,0,1.88,2.11,2.11,0,0,0,.63.91,2,2,0,0,0-.08.54,2.45,2.45,0,0,0-.34.71,14,14,0,0,0-.39,3.53,3.9,3.9,0,0,0,.61,2.63,5.87,5.87,0,0,0,2.1,1.21,8.25,8.25,0,0,0,.34,1c.22.54.25.51-.16,1a7.72,7.72,0,0,0-1.89,3.37,6.55,6.55,0,0,0-.15,1.81,2.65,2.65,0,0,0-.87.58c-1.37.54-1.8,2.43-2,3.8a5,5,0,0,0,0,1.84.21.21,0,0,0,0,.16,7.26,7.26,0,0,0,1.17,2.84,1.05,1.05,0,0,0-.08.34,3.67,3.67,0,0,0-1.86,2.75,4.22,4.22,0,0,0,0,.87,6.46,6.46,0,0,0,0,1.32,4.19,4.19,0,0,0-2.05,1.38A5.66,5.66,0,0,0,0,74.83C.17,76.78,1.16,79.45,3,80.55Zm62.23-.94.16-.09,1,1.38a8.12,8.12,0,0,0-1-.73v0A5.18,5.18,0,0,1,65.22,79.61ZM2.46,71.37a6.09,6.09,0,0,0-.88,4,6.88,6.88,0,0,0,.28,1.15h0a.65.65,0,0,0-.39.22,4.12,4.12,0,0,1-.54-1.25,5.89,5.89,0,0,1-.17-1.94A3.33,3.33,0,0,1,1.62,72,3.5,3.5,0,0,1,2.46,71.37Zm2.42-5.62a10.86,10.86,0,0,0-.22,2.8.72.72,0,0,1,.12.3c-.13.14-.26.29-.38.44l-.37,0A4.5,4.5,0,0,1,3.75,68a4,4,0,0,1,.13-.58,3.54,3.54,0,0,1,1-1.66Zm2.57-7.69a6.67,6.67,0,0,1-.12.88,5.22,5.22,0,0,1-.18.56l-.07,0a4.48,4.48,0,0,0-.4.36,5.78,5.78,0,0,1-.24-1.56c.11-.44.33-1.16.65-1.2A3.09,3.09,0,0,0,7.45,58.06Zm.13,10.7-.31.06a4.78,4.78,0,0,1-.35-3.33C7.12,66.53,7.34,67.61,7.58,68.76Zm0-2.89c0-.08.09-.16.15-.23.09.64.19,1.27.27,1.9a7.77,7.77,0,0,1,.09,1A5.36,5.36,0,0,1,7.56,65.87Zm.5-7.1L7.82,59a3.48,3.48,0,0,0,0-.36A1.54,1.54,0,0,0,8.06,58.77Zm.62-14.29a2.9,2.9,0,0,1-.38-4.27c.07.19.15.39.24.58a5.43,5.43,0,0,0,.22,2.65.22.22,0,0,0,.1.11A7.62,7.62,0,0,0,8.68,44.48ZM7.17,43A.18.18,0,0,0,7,43a13.88,13.88,0,0,1,.06-1.41l.08-.1A3.42,3.42,0,0,0,7.17,43ZM7,37.74l0,0a.12.12,0,0,0,.07.11,1.18,1.18,0,0,0,.64.51l.19.12A1.06,1.06,0,0,1,7.08,38,.87.87,0,0,1,7,37.74Zm1.65,8.89a4.21,4.21,0,0,1-.85-.6,2.25,2.25,0,0,1-.65-1.22.25.25,0,0,0,.26,0l.47-.39a3.31,3.31,0,0,0,.77.66A13.7,13.7,0,0,0,8.63,46.63ZM7,45.81a3,3,0,0,0,.84.89l-.13-.06A2.29,2.29,0,0,1,6.6,44.53,3,3,0,0,0,7,45.81ZM7.65,33a4,4,0,0,0-1,2,3.12,3.12,0,0,1,.53-1.51A1.87,1.87,0,0,1,7.65,33Zm1.14.37-.1.14a4.26,4.26,0,0,0-1.13,3.56l-.21.16,0,0a5.14,5.14,0,0,1-.09-1.81A3.5,3.5,0,0,1,8,33.23a2.29,2.29,0,0,1,.54-.42A5.22,5.22,0,0,0,8.79,33.35Zm.35.73,0-.09a4.12,4.12,0,0,0,.32.41c-.43.66-.84,1.34-1.24,2a1.52,1.52,0,0,0-.12.32,5.35,5.35,0,0,1,.66-2.6A.23.23,0,0,0,9.14,34.08Zm.21-1.35-.19.18c-.06-.11-.11-.22-.16-.33a.11.11,0,0,0,0-.07.24.24,0,0,0,.06.09.18.18,0,0,0,.22,0A.36.36,0,0,0,9.35,32.73Zm.42,1.12-.28-.39,0-.08,0-.09a1.14,1.14,0,0,0,.1.19A.56.56,0,0,1,9.77,33.85Zm2.29,8.33L12,42.11l-.93.54c-.05.16-.09.33-.13.51a11.74,11.74,0,0,0-.13,1.29,3.12,3.12,0,0,0-.43.27,2.84,2.84,0,0,0-.56.52.24.24,0,0,1,0-.08A6.77,6.77,0,0,1,10,42.69a3.27,3.27,0,0,1,.51-1.46c.24-.12.53-.21.64-.26l1.07-.5c.62-.3,1.24-.61,1.85-.93.32-.17.68-.34,1.05-.52l.1-.05a12.44,12.44,0,0,0,1.6-.9.22.22,0,0,1,0,.08l-.11.3a.21.21,0,0,1,0,.22,5.52,5.52,0,0,0-.28.71c0,1.62.17,3.26,1.61,4.31a.24.24,0,0,1,.09.27.28.28,0,0,1,0,.09l-1.69.61-.44.05h0a6.79,6.79,0,0,1-1-1.11,8.32,8.32,0,0,1-.83-1.52c0-.24,0-.48-.08-.71s-.11-.11-.14,0l-.19-.07a.19.19,0,0,0-.16,0h-.09l-.53.29a3.7,3.7,0,0,0-.15,2.23,3.94,3.94,0,0,0-.82.15C12,43.33,12.12,42.74,12.06,42.18Zm2.1,15.09a3.54,3.54,0,0,0,0,.73c.1.6.22,1.19.33,1.78a.81.81,0,0,1-.07.42,3.18,3.18,0,0,1-.52-1.51c0-.25-.06-.5-.08-.75,0-1.08,0-1.09.9-1.65a5.56,5.56,0,0,1,.51-.27,6.68,6.68,0,0,0,.34,1.45h0a.25.25,0,0,1,.25,0s0,0,0,0c0-.42-.05-.81-.07-1.19a.27.27,0,0,0,.12,0h0a9.43,9.43,0,0,1,.32,3.2h-.37a5.17,5.17,0,0,1-1.33-2.15.11.11,0,0,0-.12-.09v-.08Zm3.14,1.88a.27.27,0,0,0-.12,0,1.51,1.51,0,0,0-.42.27,3.07,3.07,0,0,1,.08-1.74c.12-.22,0-.36,0-.55a17.94,17.94,0,0,1,0-1.94c0-.11.15-.21.33-.46,0,.74,0,1.31,0,1.87A8.21,8.21,0,0,0,17.3,59.15Zm-1.79-9.24-.1,0c0,.4.06.79.07,1.19v.29a.86.86,0,0,0-.23,0,5,5,0,0,1,0-3.48l.23-.1a22.68,22.68,0,0,0,4.2-2,4.47,4.47,0,0,0-.12,1.75c0,.12,0,.24.06.36l-.06-.13a3,3,0,0,1-.31.31,3.64,3.64,0,0,0,.16,1.1,8.4,8.4,0,0,1,.3,1.57c-.11-.11-.27-.2-.31-.32-.17-.55-.32-1.11-.46-1.66,0-.13-.05-.26-.08-.4a1.94,1.94,0,0,1-.33.2c.07.5.17,1,.26,1.48a2.7,2.7,0,0,1,.07.41,12.92,12.92,0,0,1-.63-1.78s0-.05,0-.06c0-.28-.07-.63-.29-.73a.45.45,0,0,0-.54.15c-.19.26-.08.58,0,.86l0,.17c-.31.2-.62.38-.95.55a8.65,8.65,0,0,0,.22,1h0c.27.64.61,1.27.87,1.92-.24.09-.47.19-.7.3l0,0a.26.26,0,0,1-.09-.09A6.19,6.19,0,0,1,15.51,49.91ZM17.8,57.4a3.18,3.18,0,0,1,.38,1.71s-.17.12-.27.19A1.87,1.87,0,0,1,17.8,57.4Zm1.11,1.36c-.65-1.2-.25-2.3.17-3.4.1.93.21,1.86.32,2.79C19.45,58.51,19.21,58.62,18.91,58.76Zm0-4.17c-.12-.62,0-.87.62-1.13Zm-.38-14.54a.11.11,0,0,0,.05.1l0,0h0a.33.33,0,0,0-.14,0l-.12,0h-.05a11.66,11.66,0,0,1,.1-1.78,2.3,2.3,0,0,1,1.4-1.83,12.48,12.48,0,0,0,1.31-.76,5.39,5.39,0,0,1-.65,1.4A10.19,10.19,0,0,0,19,39.5a.52.52,0,0,0-.43.25.21.21,0,0,0-.07.13A.15.15,0,0,0,18.55,40.05ZM20.61,53.5c-.14,1.41-.27,2.86-.42,4.3,0,0-.08,0-.13.06A4,4,0,0,1,20.61,53.5Zm-2.37-16A5.3,5.3,0,0,0,18,40.45a2.65,2.65,0,0,0-.2.49,5.77,5.77,0,0,1-.22-.58,8,8,0,0,1-.16-2.23,2.35,2.35,0,0,1,.11-.35C17.78,37.71,18,37.62,18.24,37.54Zm-1.19-4.7L18,35.6A3.87,3.87,0,0,1,17.05,32.84ZM13.44,49.43a.07.07,0,0,0,.05-.08l.29-.17c.19-.08.37-.17.56-.27a.26.26,0,0,1,0,.33A3.48,3.48,0,0,0,14,51.72c.12.45.27.89.42,1.33s-.46.62-.62.27l0-.09h0v0A6.12,6.12,0,0,1,13.33,52a7.05,7.05,0,0,1-.24-1.36,4.83,4.83,0,0,1,.08-1.1l.08,0ZM13.3,42c0,.27-.08.53-.13.8a1.86,1.86,0,0,1,.13-.9ZM14,61.05c-.1.07-.11.1-.13.1-1.07.18-1.26,0-1.41-1a1.81,1.81,0,0,1,.26-1.43A4.2,4.2,0,0,0,14,61.05ZM11.87,39a2.6,2.6,0,0,1,0-2.29c.16.57.35,1.14.46,1.72C12.43,38.7,12.14,38.84,11.87,39Zm-1.79-1.39.19-.06c.21.78.43,1.55.64,2.32A5.83,5.83,0,0,1,10.08,37.58ZM10,35.42l.85-1.25.42-.44a.12.12,0,0,0,0-.09c1.3-.61,2.6-1.21,3.9-1.79s2.53-1,3.73-1.64a.64.64,0,0,1,.06.18.34.34,0,0,1,0,.35A1.11,1.11,0,0,1,19,31a5.78,5.78,0,0,0-.17,2.74,1,1,0,0,0,.56.84c.19.11.37.24.67.43a6.08,6.08,0,0,1-1.47.54,4.51,4.51,0,0,1-.85-2.19c0-.64,0-1.3,0-2l-.44.22a.73.73,0,0,1-.11.37L17,31.72l-.37.19a2.45,2.45,0,0,0,0,.27,7.21,7.21,0,0,0,.61,3.3.82.82,0,0,1,.05.47c-1-.86-.81-2.19-1.39-3.22a.31.31,0,0,1-.1.05A5.52,5.52,0,0,0,16,34.46a14.17,14.17,0,0,0,.57,1.78c-.43,0-.59-.12-.93-.92a1.61,1.61,0,0,1-.14-1.07l-.21,0a.1.1,0,0,1,0,.05h-.06l-.11,0,0,.06a1.45,1.45,0,0,0,0,.59,10.74,10.74,0,0,0,.58,1.3c-.29.7-.29.7-1,1a1.63,1.63,0,0,1-.23-.43c-.14-.82-.3-1.63-.38-2.45a1.39,1.39,0,0,1,.07-.49l-.23-.11a6.39,6.39,0,0,1-1.14.48c-.07.15-.14.31-.22.47-.39-.07-.59.28-.79.64A4.52,4.52,0,0,0,11.13,38l-.77-1.53a.35.35,0,0,1-.56-.35A5,5,0,0,1,10,35.42Zm7.2-14.68v.32a3.6,3.6,0,0,1,.12.44l.91,1.86L17.17,24a2.39,2.39,0,0,1-.27-.74A3.7,3.7,0,0,1,16.73,21v0l-.56.27a3.54,3.54,0,0,1-1.05,1.39,3.81,3.81,0,0,0-1,2.31c0,.32-.19.43-.52.5-.06-.11-.12-.22-.17-.33a.28.28,0,0,0,0-.16l-.07-.09A5.53,5.53,0,0,1,12.77,23a1.52,1.52,0,0,1,.52-1.35,7.59,7.59,0,0,1,1.39-1,16.58,16.58,0,0,0,3-2.09,3.07,3.07,0,0,1,.54-.44,6.26,6.26,0,0,1,.57-.45s0,0,0,0L20.34,17h0a3.44,3.44,0,0,0-.53.88,3.07,3.07,0,0,0-.48,1.63l0,.08,0,.16a8.49,8.49,0,0,0,.4,1.38,7.14,7.14,0,0,0,.51,1.08,1,1,0,0,0,.83.05.75.75,0,0,1-.07.12l-1.4.47-.05,0,0,0-.08.06-.09,0a.38.38,0,0,1-.38-.2h0a4.05,4.05,0,0,1-.82-2.17.12.12,0,0,0-.18-.11l.06-.23-.05,0a.1.1,0,0,1,0,.12Zm-3.19-2-.16,0,.39-1.5.15,0a4.7,4.7,0,0,0,0,.84.16.16,0,0,0,0,.23.07.07,0,0,0,0,.05l-.27.18A.18.18,0,0,0,14,18.72Zm-.81,8.2-.6.3-.55.28A6.52,6.52,0,0,1,13.22,26.92Zm2.31-3.86c.06.53.11,1,.17,1.46L14.64,25A2.49,2.49,0,0,1,15.53,23.06Zm1,3.32c.05-.18.11-.36.17-.53.46-.21.93-.43,1.38-.67a4.52,4.52,0,0,0-.46.76c-.66.51-.69,1.48-1,2.23a.88.88,0,0,1-.28-.3C16.38,27.37,16.45,26.87,16.54,26.38ZM12.85,27.6c.71-.37,1.44-.69,2.17-1a4.26,4.26,0,0,0,.39,2.66,2.71,2.71,0,0,0,0,.29A2.08,2.08,0,0,1,14.61,28c0-.05,0-.09,0-.13l-.32.26,0,.41c0,.06,0,.12.05.18.14.3.3.59.47.88a.1.1,0,0,1,0,.13,2.05,2.05,0,0,1-.41.22c0,.08-.09.15-.14.23a1.37,1.37,0,0,1-.13-.2s0,0,0,0,0,0,0-.06a1.9,1.9,0,0,1-.11-.39c-.09-.31-.18-.62-.25-.93l-.1.07a2.24,2.24,0,0,0-1,2.4.24.24,0,0,1-.11.19,11.09,11.09,0,0,1-1.94,1.12.23.23,0,0,1-.28-.15A3.43,3.43,0,0,1,10.51,29C11.3,28.58,12.05,28,12.85,27.6Zm8.72-14,0,.08h0l0,0A2,2,0,0,1,20,15a13,13,0,0,1-1.35-.53,4.7,4.7,0,0,1-.73-.5,5.66,5.66,0,0,1-.4-.56c-.11-.19-.46-.12-.44.12v.07a.23.23,0,0,0,0,.31h0a5.3,5.3,0,0,0,.71,2.26,3.8,3.8,0,0,0-.66.41l0-.08a4.67,4.67,0,0,1-.26-.8c-.05-.24-.37-.19-.42,0a.11.11,0,0,0,0,.11,5.38,5.38,0,0,0,.2,1.2l-.25.13-.07,0a1.55,1.55,0,0,1-.24.19l-.28.16a.31.31,0,0,0-.1.05A6.16,6.16,0,0,1,16,15.05.09.09,0,0,1,16,15a.45.45,0,0,0,0-.11c0-.2,0-.39,0-.58h0l-.1,0a12.91,12.91,0,0,0-.64,3.07,2.05,2.05,0,0,1-.07.34l-.26.12a3.07,3.07,0,0,1,.06-1.35,15.07,15.07,0,0,1,.45-1.68l-.13,0c-.21.32-.42.65-.65,1a1.9,1.9,0,0,1-.37.5,1.57,1.57,0,0,0-.36.73c-.16.65-.28,1.32-.4,2a1,1,0,0,1-.56.82l-1-2.36A1.54,1.54,0,0,1,12.22,16a53,53,0,0,1,4-4.93c.26-.3.49-.64.73-1a2.79,2.79,0,0,1,1.12-.91,2.5,2.5,0,0,1,3.17.08l-.77.28a1.79,1.79,0,0,0-2,.19c-.76.49-.1,2.48.12,3a2.38,2.38,0,0,0,.58.85,1.42,1.42,0,0,0,.08.18,1.16,1.16,0,0,0,.49.2c.59.29,1.24,0,1.77-.63A.23.23,0,0,1,21.57,13.62Zm.46,15a.35.35,0,0,1-.32.33,3.31,3.31,0,0,1-1.47-.16.28.28,0,0,1-.26,0,2.85,2.85,0,0,1-.33-.25,2.59,2.59,0,0,1-1.18-1.76,2.16,2.16,0,0,1,0-.88c.12-.26.25-.51.38-.77a2.14,2.14,0,0,1,1.65-.73h0a4.85,4.85,0,0,1,.65.31l.05,0a.35.35,0,0,1-.21.18l-.2.08a.26.26,0,0,1-.11.07l-.09,0a1.77,1.77,0,0,0,1.09,3.21.34.34,0,0,1,.18,0C21.94,28.36,22,28.47,22,28.57Zm1,4.69a2.24,2.24,0,0,1-2.19,1.57,2.69,2.69,0,0,1-.3-.37,4,4,0,0,1-.28-.51,2.3,2.3,0,0,1-.3-.84,2.92,2.92,0,0,1,.28-2.54A1.4,1.4,0,0,1,22,30.31s0,0,0,0a2.14,2.14,0,0,0-.63.83,1.94,1.94,0,0,0-.76,1.64,4.92,4.92,0,0,0,.18.68c.05.09.09.18.15.27a1.1,1.1,0,0,0,1,.53C22.47,34.23,22.82,33.72,23.05,33.26Zm.14,7.92-.27.28-.07,0a1.28,1.28,0,0,1-.84.11A1.73,1.73,0,0,1,21,40.35a4.87,4.87,0,0,1,.36-4c.17-.22.41-.11.51.08.26,0,.53.23.33.48a3.71,3.71,0,0,0-.5,2.92,1.74,1.74,0,0,0,.51,1.09.46.46,0,0,0,.14.07h0a1.59,1.59,0,0,0,.54.19Zm.18,8.38,0,.1c-.21.34-.43.68-.65,1A1.32,1.32,0,0,1,21,49.58a3.83,3.83,0,0,1-.14-.69A3.87,3.87,0,0,1,21.4,46a.43.43,0,0,0,0-.07.16.16,0,0,0,.25,0l0,0a.12.12,0,0,0,.13,0,4.11,4.11,0,0,1,.51-.27.36.36,0,0,1-.08.25l-.06.08a.28.28,0,0,1-.1.23,1.2,1.2,0,0,0-.17.21,4.61,4.61,0,0,0-.37,2.42,1.48,1.48,0,0,0,.56,1C22.54,50.06,23,49.81,23.37,49.56ZM22.32,65.05l-.28.06a5.33,5.33,0,0,1,.31-4.56A9,9,0,0,0,22.32,65.05Zm-1-7.56a5.39,5.39,0,0,1-.16-1.44,3.83,3.83,0,0,1,.45-1.52c.18-.32.45-.58.64-.88l.17,0h0a.31.31,0,0,1,.38.23l0,0v0a.3.3,0,0,1-.15.33h0a1.81,1.81,0,0,0-.64.68,7.55,7.55,0,0,0,.48,3.31h0l-.39.4,0,0a.27.27,0,0,1-.16-.08A3.24,3.24,0,0,1,21.31,57.49ZM29,53.74h-.06a4.65,4.65,0,0,1-1-1.6A5.42,5.42,0,0,1,27.69,50a3,3,0,0,0,.1-.52l3-1.35.11.14a2,2,0,0,1-.11.26,6.81,6.81,0,0,0-1,5.08v.08a.92.92,0,0,1-.43.09l0-.35c0-.86,0-1.71-.09-2.57a.19.19,0,0,0-.37,0A17.69,17.69,0,0,0,29,53.74Zm2-.19-.13,0a2.73,2.73,0,0,1-.35-1.48,12.88,12.88,0,0,1,.11-2v0l0-.14,0,0a1.69,1.69,0,0,1,.13-.31c0-.13.08-.26.13-.38a.12.12,0,0,1,.12-.07l.12,0c.21.12.08.43,0,.65s-.1.5-.14.75A12.29,12.29,0,0,0,31,52.11,13.77,13.77,0,0,0,31,53.55Zm1.11-5.26-.53-.49a4.15,4.15,0,0,1,.42-.24l2.25-.85a39.73,39.73,0,0,1,4.69-1.06,4,4,0,0,1,1,0,11.27,11.27,0,0,0-.34,5.66h-.05l-.3.45c-.46-.35-.41-.89-.54-1.36l-.3,0c-.12.23-.07.52.11,1.31a1.58,1.58,0,0,1-.85-1.09,4.43,4.43,0,0,1-.1-1c-.14,0-.29.05-.43.09a2.81,2.81,0,0,0,.06.57c.08.4.21.79.26,1.2a3.13,3.13,0,0,1-.93-3.07l-.35,0a1.4,1.4,0,0,0-.06.28,3.52,3.52,0,0,0,.71,2.83c.19.23.36.46.57.73a1.3,1.3,0,0,1-1.34-.81,5.86,5.86,0,0,1-.7-2.44,3.45,3.45,0,0,1,0-.64l-.95.1s0,.1,0,.15c0,.85,0,1.7,0,2.55a2.29,2.29,0,0,1-.09.42,2.42,2.42,0,0,1-.75-2,6.47,6.47,0,0,1,.28-1.09c-.36,0-.72.08-1.07.14l0,.08a5.42,5.42,0,0,0,.15,3.4c0,.15.14.3.23.5a2.42,2.42,0,0,1-1.43-2.18c.07-.37.06-.75.12-1.13S32,48.63,32.1,48.29Zm2.26,4.2-.14.07-1-.9a.24.24,0,0,1-.07-.13,4.27,4.27,0,0,1,0-2.69C32.85,50.28,33.66,51.37,34.36,52.49Zm.56-3.22.6,2c-.22.22-.41.18-.51-.09A2.81,2.81,0,0,1,34.92,49.27Zm6.51,2.36-1.29-.26a12.26,12.26,0,0,1-.31-2.21,14.66,14.66,0,0,1,.41-3.55l.68,0a.14.14,0,0,0,0,.06.06.06,0,0,0-.09.05l0,.31A7.31,7.31,0,0,0,41.43,51.63ZM31.15,45.57a1.68,1.68,0,0,1-.38-.56,6.88,6.88,0,0,1-.77-3.4.28.28,0,0,0,0-.09h0l-.07,0-.84.4a4.24,4.24,0,0,0,.08,1.55c.05.2-.22.4-.37.22a2.57,2.57,0,0,1-.57-1.26l-.13.08c-.12.54-.23,1.08-.3,1.63a.67.67,0,0,1-.69.7c0-.59.06-1.17.09-1.81-.42.31-.47.31-.48,2.11a3.27,3.27,0,0,0,0,.44.31.31,0,0,0-.19,0h0a6.77,6.77,0,0,1,0-2.29,3,3,0,0,1,1.57-2.25,3.31,3.31,0,0,1,1.32-.53,3.35,3.35,0,0,1,.47-.21v0l1.82-.6c0,.35-.05.61-.06.87,0,.55-.09,1.09-.12,1.63a2.8,2.8,0,0,1,.41-.13L32.16,40c.05-.45.3-.66.83-.6,0,.16-.07.32-.11.47-.22.67-.47,1.33-.63,2a.85.85,0,0,0,0,.17l.24-.05a.17.17,0,0,1,.14,0,7.61,7.61,0,0,1,.28-1,11.93,11.93,0,0,1,.57-1.39,2.38,2.38,0,0,1,.44-.52l.18.14a8.28,8.28,0,0,0-.25,1,9.13,9.13,0,0,0-.17,1.38,5.58,5.58,0,0,1,.81-.18,6.35,6.35,0,0,1,1-2.36,1.09,1.09,0,0,1,1.18-.58,12.67,12.67,0,0,0-.71,2.07l.33-.09a3.3,3.3,0,0,1,.32-.84c.34-.57.51-1.29,1.26-1.55a12.36,12.36,0,0,0-1,2.22l.4-.1h0a10.86,10.86,0,0,1,.86-1.66A1.94,1.94,0,0,1,40,37.6c.57,0,1.14,0,1.69,0-1.11,1.68-.77,3.47-.29,5.27a4.1,4.1,0,0,1,.18.82,6,6,0,0,1-1.68-1.34,10.8,10.8,0,0,1-.13-2.14l-1.06.27a3,3,0,0,0-.12.68c0,.09,0,.18,0,.27a10.42,10.42,0,0,0-.12,2.41c0,.05,0,.1.08.14a.19.19,0,0,1-.09.28.2.2,0,0,1-.14.13l-.36.07s0,0,0,0l-.85.23a2.11,2.11,0,0,1-1.14.19,1.94,1.94,0,0,1-1.13-.9l-.13,0c-.3.1-.6.2-.89.33h-.06a5.55,5.55,0,0,0,.28.8c-.79.21-1.58.43-2.37.62A.59.59,0,0,1,31.15,45.57Zm10.67-3.11a5.76,5.76,0,0,1,.27-4.39.45.45,0,0,1,.82.11l.06.19a.64.64,0,0,0-.64.34h0v0a.25.25,0,0,0-.18.24,1.09,1.09,0,0,0,0,.18,3.52,3.52,0,0,0-.11.62,7.87,7.87,0,0,0-.13,1.5,9.38,9.38,0,0,0,.07,1.4A.39.39,0,0,1,41.82,42.46ZM42,53.61a.21.21,0,0,0,.07-.12h.14l.06,0,0,0A13,13,0,0,0,42,55.91a2.17,2.17,0,0,0,0,.26.39.39,0,0,0-.45.11A21.62,21.62,0,0,1,42,53.61Zm5.32-14.82c0,.17.05.34.08.51a.46.46,0,0,1-.52.55.48.48,0,0,1-.59-.43c0-.25,0-.5-.07-.75a5.34,5.34,0,0,1-.36-2.81,2.28,2.28,0,0,1,0-.26.39.39,0,0,1,.4-.43,1.94,1.94,0,0,1,.38-.3.46.46,0,0,1,.66.27A16.49,16.49,0,0,1,47.33,38.79Zm1-.2h0l0,0a.42.42,0,0,1-.06-.21c0-1.28-.2-2.55-.22-3.82l-.06-.11c-.26-.52.52-1,.78-.46l.13.26h0c.15.29.31.62.45,1l.06,0,.15-.1,0,0,.09-.07c-.13-.73-.29-1.45-.43-2.17a3.59,3.59,0,0,0,.84-.52h0a5.84,5.84,0,0,1,.87,2.21l.05,0a.91.91,0,0,1,.52-.2,1,1,0,0,1,.08-.23c.11-.22-.05-.58-.1-.88s-.12-.47-.19-.77a3,3,0,0,1,.92,2c.12-.13.25-.26.37-.4l-.8-2.64A4.76,4.76,0,0,1,53,33.52l.28-.36a10.45,10.45,0,0,0-.7-1.67l-.25-.38-.54-.27h0l-.11-.06,0,0a.22.22,0,0,1,0-.23,3.45,3.45,0,0,1,1-.76c.14-.1.27,0,.29.15a.22.22,0,0,1,.13.06h0l0,0h0a2.46,2.46,0,0,1,1.25,1.25A2.52,2.52,0,0,1,55,32.86c.19,1.69-3.12,4.14-4.89,5l-.18.13v0l-.44.19h0a.18.18,0,0,1-.19-.06h0l-.07,0c0-.25,0-.5,0-.75a5.31,5.31,0,0,0,0-.68l-.27.07h-.1a10.29,10.29,0,0,1,0,1.11,4,4,0,0,1-.09.5l-.37.15Zm2.06-13.77-.06-.07a1.35,1.35,0,0,1,.31-.41,2.42,2.42,0,0,1,.93-.54.28.28,0,0,0,.08-.06,1.24,1.24,0,0,1,1.31.51l0,0a.91.91,0,0,0-.07.14,1.55,1.55,0,0,0-1.18.22l-.17.12a.18.18,0,0,1,0,.14c-.1.13-.21.26-.31.4a.21.21,0,0,1,0,.06l0,0a1.57,1.57,0,0,0-.24.41.21.21,0,0,1-.15.14c-.33,0-.6-.14-.57-.54a1.45,1.45,0,0,1,0-.28.26.26,0,0,1,0-.08A1.07,1.07,0,0,1,50.39,24.82Zm-.53,1.66a2.61,2.61,0,0,0,1.06.29,4,4,0,0,1-.66.32A1.24,1.24,0,0,1,49.9,27h0l0,0a1,1,0,0,1-.19-.12l-.09-.08,0,0-.14-.15-.12-.18h0a1.65,1.65,0,0,1,.37-2c.19-.18.48.11.29.29A1.19,1.19,0,0,0,49.86,26.48Zm2.63,1.21.7,1.5C52.34,28.67,52.22,28.41,52.49,27.69Zm.5-.47c.24.69.49,1.37.73,2.06l-.11,0-.83-2Zm-4.16-3.9c1.09-.89,4.47-1.82,5.38-.26a1.44,1.44,0,0,1,.3.51,4.27,4.27,0,0,1-.38,1,2.88,2.88,0,0,1-.41.5,1.77,1.77,0,0,0,.12-.41,1.13,1.13,0,0,0,0-.55c.1-.91-1-1.28-1.75-1.25A3.82,3.82,0,0,0,49,24.29a2.22,2.22,0,0,0,.11,2.8l.16.14A1.52,1.52,0,0,1,48,26.36,2.56,2.56,0,0,1,48.83,23.32Zm5.54-3.18a.36.36,0,0,0,.07-.1l.57.9s.07.11.11.17v0s0,.06,0,.07l0,0a2.23,2.23,0,0,1-.26-.27l-.41-.44A1.53,1.53,0,0,0,54.37,20.14ZM47.56,6.49a2.88,2.88,0,0,0-.26.35,3.92,3.92,0,0,1,.41-.75h.07a1.88,1.88,0,0,1,.08.52l0-.07A.18.18,0,0,0,47.56,6.49Zm-1.3,6.25a9.63,9.63,0,0,1-.42,1,.85.85,0,0,1-.74,0,1,1,0,0,1-.84-.4,1.41,1.41,0,0,1-.21-.35l-.06.12a2.88,2.88,0,0,1-.09-.88,8.89,8.89,0,0,1,.74-2.16.41.41,0,0,1,.3-.47,1.48,1.48,0,0,1,.83,0,3,3,0,0,0-.9,1.37,2.25,2.25,0,0,0,0,1.88.7.7,0,0,0,1,.2L46,13A2.25,2.25,0,0,0,46.26,12.74Zm-.06-2.31-.05.1,0,.07a.15.15,0,0,0-.12.05,1.74,1.74,0,0,0-.26.45,2.61,2.61,0,0,0-.36.55,1.55,1.55,0,0,1,0-.22,1.2,1.2,0,0,1,.83-1.08,0,0,0,0,1,0,0S46.2,10.41,46.2,10.43ZM41.4,20.59c0-.12,0-.25,0-.37-.19-.8-.41-1.6-.57-2.41a3.22,3.22,0,0,1,.32-1.9.65.65,0,0,1,.53-.46,4.46,4.46,0,0,1,2.76.51,2.5,2.5,0,0,0-.94.72c-.16.15-.31.3-.45.46a3.85,3.85,0,0,0-1.12,2,3.91,3.91,0,0,0,.95,3,13.26,13.26,0,0,1-1.73-.69c-.7-.37-.67-.42-.89-1.25l.31-.17a6,6,0,0,1-.65-4.74l1,.16a5.73,5.73,0,0,0,.38,5.17Zm-1.76-1.51c-.33.13-.46,0-.59-.25a3.26,3.26,0,0,1,.33-3.56A8.89,8.89,0,0,0,39.64,19.08Zm-1.21,1.11c-.23,0-.41.06-.58.07s-.64,0-1,0-.43-.41-.56-.69-.16-.32-.25-.48H36c-.21-.48-.4-1-.58-1.48,0,0,0,0,0,0v0c0-.27-.39-.26-.42,0a6.47,6.47,0,0,0,0,1.25,6.27,6.27,0,0,0,.18,1.37.88.88,0,0,1-.12.26.93.93,0,0,1-1.12-.66,3,3,0,0,0-.36-.65,21.43,21.43,0,0,1,.34-2.5c0-.22-.27-.37-.38-.16a8.22,8.22,0,0,0-.63,1.63H32.8A11.08,11.08,0,0,1,33,16.26a.17.17,0,0,0-.31-.13A5.84,5.84,0,0,0,32,18.19l-.14,0a4,4,0,0,1-.37,1.13c0-.08,0-.16,0-.24a17.32,17.32,0,0,1,.16-2.27c0-.1-.15-.11-.18,0A8.88,8.88,0,0,0,31.1,20c-.22.32-.47.64-.73,1a3.89,3.89,0,0,1-.43-.87,8.93,8.93,0,0,1-.09-3.22.74.74,0,0,1,.63-.72,2.18,2.18,0,0,0,.69-.28,6.3,6.3,0,0,1,2.28-.74c.64-.11,1.27-.27,1.91-.36s1-.07,1.65-.11a6,6,0,0,0,0,2.72,10,10,0,0,0,.82,2.52l.15,0c0-.29-.1-.59-.16-.89-.18-.88-.4-1.75-.54-2.64a3.69,3.69,0,0,1,.09-1.19c.07-.34.3-.51.74-.34C37.93,16.58,37.47,18.41,38.43,20.19Zm-9-.58A2.79,2.79,0,0,1,29.16,21a4.73,4.73,0,0,1-.61-4.14c.13-.38.19-.4.87-.41,0,.17,0,.34,0,.5C29.42,17.86,29.39,18.74,29.45,19.61Zm4.11,3.21c.59-.07,1.18-.14,1.77-.18a62,62,0,0,1,6.54.06l.23.16.26,0a.61.61,0,0,0-.07.14.19.19,0,0,1-.12.29c0,.06-.05.12-.07.19h0a9.35,9.35,0,0,0-.36,1.25,23.58,23.58,0,0,1-.28,2.53,3.66,3.66,0,0,0-.66,0,14.72,14.72,0,0,1,.06-2.64l0-.16a4.16,4.16,0,0,1,.21-.71,1.9,1.9,0,0,1-.4.14,16.18,16.18,0,0,0-.46,3.4s0,0,0,0a3.16,3.16,0,0,0-.79.25.44.44,0,0,1-.1-.29c0-.25,0-.51,0-.76a.2.2,0,0,1-.15-.06c0,.23,0,.47,0,.71a.45.45,0,0,1-.88.12s0,0,0-.06a.37.37,0,0,1-.55-.28,2.7,2.7,0,0,1,0-.28.44.44,0,0,1-.07-.17,5.92,5.92,0,0,1-.16-1.3,12.42,12.42,0,0,1-1.48.17A5.49,5.49,0,0,1,36.47,24c.12-.23-.18-.5-.37-.29a4.89,4.89,0,0,0-1,1.63.76.76,0,0,0-.21,0v0c.14-.46.31-.91.49-1.35-.26,0-.53,0-.8,0-.06.11-.12.22-.17.33a5.68,5.68,0,0,0-.39,1l-.3,0v0l-.13,0c.09-.37.21-.73.34-1.1a.2.2,0,0,0-.08-.23h-.3l0,.05a4.52,4.52,0,0,0-.45,1.31H33V26c0,.11,0,.22,0,.33a2.36,2.36,0,0,0,0,.38V27h-.24a5.1,5.1,0,0,1-.23-1.5l-.36,0c0,.55.08,1.11.13,1.74l-.42-.18c0-.72.07-1.43.16-2.14,0-.2.06-.39.1-.58l-.93.15c-.08.87-.17,1.74-.25,2.62l-.09,0c-.09-.29-.19-.58-.26-.88a5,5,0,0,1-.1-1.68l-.45.07a17.75,17.75,0,0,1,.21,2.06,1.19,1.19,0,0,1-.63,1.2,4.41,4.41,0,0,1,.18-3.23l-.54.08c-.05.18-.09.36-.13.55A6.68,6.68,0,0,0,29,26.73a9.86,9.86,0,0,0,.23,1.41c.07.43.52.8.22,1.35-.12-.1-.21-.15-.25-.23A8.3,8.3,0,0,1,28,25.43a1.4,1.4,0,0,1,.14-.69.18.18,0,0,1,.09-.21l.09-.06a1.37,1.37,0,0,1,.22-.19C30.19,23.71,31.86,23.23,33.56,22.82Zm-6.39-3a10.41,10.41,0,0,1,.17,2.49,8.29,8.29,0,0,1,0-5.05C27.27,18.09,27.19,19,27.17,19.8Zm-.93,16.94a4.9,4.9,0,0,0,.28,1.73c.07.19.19.41.3.64a.34.34,0,0,1-.54,0,5.17,5.17,0,0,1-.51-3.87.35.35,0,0,1,.65,0A7.58,7.58,0,0,0,26.24,36.74Zm-1.06-10.3a9.41,9.41,0,0,0,1-.62.28.28,0,0,1,.08.33c-.05.12-.08.24-.12.35v.73c.07.7.13,1.41.2,2.14a5.76,5.76,0,0,0,.51.9.28.28,0,0,1,.06.22l-.59.19a.18.18,0,0,1,0-.07A5.65,5.65,0,0,1,25.18,26.44Zm1.47-8.79c0,.29,0,.51-.06.73-.05.7-.09,1.4-.13,2.09,0,.32.07.66-.26.89A3.89,3.89,0,0,1,26.65,17.65ZM27,25a2.48,2.48,0,0,1,0,1.41,11.3,11.3,0,0,0-.17,1.41,11.13,11.13,0,0,0,.15,1.39A5.68,5.68,0,0,1,27,25Zm.55,9.18.21,0,0,.09a2.31,2.31,0,0,0-.13,1.55.94.94,0,0,1-.31,1.12c0-.17,0-.35,0-.52a12.52,12.52,0,0,1,0-1.5A4.83,4.83,0,0,1,27.54,34.13Zm0-7.66L29.07,30l-.23.09C27.71,29.14,27.65,27.83,27.54,26.47Zm.9,7.47.26-.06c-.07,1-.15,1.94-.22,2.93C28,36.38,28,35.19,28.44,33.94Zm.65-.27h0a22.5,22.5,0,0,0,.46,4.86l-.45.07a1.12,1.12,0,0,1-.09-.36c-.06-.95-.12-1.89-.11-2.84A14.31,14.31,0,0,1,29.09,33.67Zm-1.3-15.86c.14,1.14.26,2.18.38,3.22A3.62,3.62,0,0,1,27.79,17.81Zm2.85,17.71a5,5,0,0,1-.27,2.54,3.48,3.48,0,0,1-.19-.52,12.49,12.49,0,0,1,.11-4.91c.11-.59.21-.66.81-.69A7.44,7.44,0,0,0,30.64,35.52Zm2.18-.17-.68-.07a6.9,6.9,0,0,1,.26-3.09c.66-2.07.67-1.95,2.49-2.34a29.36,29.36,0,0,1,3.51-.33l.59-.07a13.4,13.4,0,0,1,3.12-.12c-.11.17-.21.35-.3.52a.16.16,0,0,0-.1.1l-.12.34a7.88,7.88,0,0,0-.22,5.21,4.21,4.21,0,0,1-.8-2.65,4,4,0,0,1,.63-2.66.6.6,0,0,0-.71.45,4.39,4.39,0,0,0-.27.94,7.52,7.52,0,0,0,.27,3.2,11.35,11.35,0,0,0,.91,1.76c-.08,0-.24.05-.27,0-.57-.85-1.36-1.59-1.42-2.69,0-.7,0-1.4,0-2.1a2,2,0,0,0-.07-.69,7.32,7.32,0,0,0-.44,2.68,5.58,5.58,0,0,1-.42-3c-.17.07-.24.08-.25.1a9.57,9.57,0,0,0-.24,2A12,12,0,0,0,39.86,36l.25.27H40c-.91,0-1.82,0-2.74.08A4.72,4.72,0,0,1,36.59,35l-.17.07a.17.17,0,0,1-.12,0c.11.25.23.49.35.74a4.06,4.06,0,0,0,.42.63l-.94.09a1.06,1.06,0,0,1-.15-.15,13.2,13.2,0,0,1-.81-5.28c0-.11-.09-.14-.17-.11a.2.2,0,0,0-.3,0A3.32,3.32,0,0,0,34,33.57c0,.53.06,1,.11,1.58,0,.12,0,.23,0,.35-.4.15-.42.31-.49.91a5.31,5.31,0,0,0-.89.13C32.79,36.15,32.8,35.78,32.82,35.35Zm2.33,3.46-.76,1.42A1.2,1.2,0,0,1,35.15,38.81Zm7.35-6.16a2.44,2.44,0,0,0,.23,1.15c0,.12,0,.25.05.37a.17.17,0,0,0,0,.1q0,.4,0,.81a1,1,0,0,1-.41-.08,3.81,3.81,0,0,1-.51-1.31c0-.68.25-1.45.3-1.88a3.53,3.53,0,0,1,.61-1.87h0l.1-.07a1.54,1.54,0,0,1,.26.4.13.13,0,0,0-.14.08A4.75,4.75,0,0,0,42.5,32.65Zm1.26-12.5a.56.56,0,0,0,.55.18.81.81,0,0,0,.75.12A4.52,4.52,0,0,0,45,21a3,3,0,0,1-.86.44h-.06a.38.38,0,0,1-.26,0,1.51,1.51,0,0,1-.68-.43h0L43,21a2,2,0,0,1-.28-1.34h0a4.3,4.3,0,0,1,.37-1.46A3.44,3.44,0,0,1,44,17.07c.21-.38.42-.54.66-.48a4.88,4.88,0,0,0-.74,1.33C43.71,18.44,43.31,19.65,43.76,20.15ZM42.35,27.5v.1a.18.18,0,0,0-.1-.09,3,3,0,0,0-.42-.14A7.14,7.14,0,0,0,42,25.63a8.94,8.94,0,0,1,.65-2.72l.4,0A.2.2,0,0,1,43,23,8.74,8.74,0,0,0,42.35,27.5ZM31.8,33.31c-.11.78-.08,1.57-.12,2.43-.88-.92-.77-2.78.11-4.19h0a.48.48,0,0,0,.42-.21A18.17,18.17,0,0,0,31.8,33.31Zm.61-15.19H32.3a4.37,4.37,0,0,1,.17-.62A6,6,0,0,0,32.41,18.12Zm5.85.07c.31.43.62.83.88,1.26.08.15,0,.38,0,.58l-.25,0A3.09,3.09,0,0,1,38.26,18.19Zm6.23,10.25a3,3,0,0,1-1.1-.09s0,0,0,0c-.61-.32-.63-1.27-.52-2,0-1.29.33-2.75,1.07-3.26l.16.09a1.54,1.54,0,0,1,.28.42c0,.12,0,.25-.05.37-.66.53-.71,2.93-.37,3.62.12.1.24.07.4-.22a4.7,4.7,0,0,0,.4-1.27c.08-.35.14-.71.2-1.07a7.33,7.33,0,0,0-.19-.81,1,1,0,0,0,0-.24c0-.05,0-.09,0-.13l.06,0a.19.19,0,0,0,.14-.05,1.06,1.06,0,0,0,.17-.2,2.11,2.11,0,0,1,1,1.5.49.49,0,0,1,0,.12c-.1.61-.22,1.2-.37,1.79A6.35,6.35,0,0,1,44.49,28.44Zm-1.69,14a.45.45,0,0,1-.08.17A4.53,4.53,0,0,1,42.5,41a8.36,8.36,0,0,0,0-1.32c.08-.22.28-.31.6-.28A12.17,12.17,0,0,1,42.8,42.46ZM28.22,54.2a10.17,10.17,0,0,0-1.88.48c-.58-1-1.34-3.37-.33-4.17a.19.19,0,0,1,.14-.09l.05,0a.65.65,0,0,1,.33-.17l0,0,0-.09a.21.21,0,0,1,.18-.15,6.07,6.07,0,0,0,.42,2.13A11.43,11.43,0,0,0,28.22,54.2ZM26.48,68.43c0,.22.08.43.11.65a5,5,0,0,1-.54.21,4.84,4.84,0,0,1-.82-1.11,2.09,2.09,0,0,1,0-.66,4.46,4.46,0,0,0,.5-.22l.28-.07A7.6,7.6,0,0,1,26.48,68.43ZM25.15,43.85a.29.29,0,0,1,.1-.34s0-.11.05-.16a.37.37,0,0,1,.54-.18,14.11,14.11,0,0,0-.3,4.49.35.35,0,0,1-.24-.22A6.11,6.11,0,0,1,25.15,43.85Zm-.37-20.53a.33.33,0,0,1-.1-.15A5.8,5.8,0,0,1,24.56,19l.72-.3a.31.31,0,0,1,0,.3.32.32,0,0,1,0,.18,7.8,7.8,0,0,0,.11,3.9.64.64,0,0,1,0,.07A4.39,4.39,0,0,0,24.78,23.32Zm.28-14.91a6.26,6.26,0,0,1,.15,2.21,8.62,8.62,0,0,0-1.05.74L24,11.1c-.53-1.35-.88-3,.36-4a.34.34,0,0,1,.23,0c.19-.22.64-.17.59.19S25.09,8,25.06,8.41Zm.56-3.14c-.36.14-.69.32-1,.47s-.43.46-.67.73A4.07,4.07,0,0,1,25.56,4C25.56,4.43,25.6,4.87,25.62,5.27Zm.1,6.78h0c.26-.18.54-.35.82-.51a24.93,24.93,0,0,1,2.28-1.08.18.18,0,0,0,.2,0l.18-.1,1.28-.26c1-.23,2-.37,3-.67,1-.13,2-.38,3-.5a28.38,28.38,0,0,1,3.57-.2h0l.07.06.1-.06c.91,0,1.81.07,2.7.16A5.59,5.59,0,0,0,44,9h0l.42.06a.14.14,0,0,0,0,.06,1.63,1.63,0,0,1,.11.17c-.63,1.35-1.4,2.61-.93,4.19l-.46-.07a4.25,4.25,0,0,1-.41-3.69c.08-.24-.3-.34-.38-.11a10.42,10.42,0,0,0-.58,3.3c0,.1,0,.21,0,.31l-.58-.05a5.14,5.14,0,0,1-.09-.87A8.9,8.9,0,0,1,42,9.79c.08-.16-.13-.34-.25-.2a3.81,3.81,0,0,0-.94,2.46,7.61,7.61,0,0,0-.19,1.08,18.63,18.63,0,0,0-3.42.11,11,11,0,0,1,.7-3.54c.07-.16-.2-.27-.28-.12a7.72,7.72,0,0,0-.74,2.61,6.9,6.9,0,0,0-.07,1.11c-.46.07-.93.15-1.39.26a3.48,3.48,0,0,1,.26-2.09,9.82,9.82,0,0,1,.6-1.09l-.48.19c-.51.21-1,.42-1.52.65a5,5,0,0,0-.48,1.15,9.13,9.13,0,0,0-.24,1.18c-.05.24-.06.24-.47.37,0-.31-.07-.61-.11-.91a5.32,5.32,0,0,1,.25-.77.16.16,0,0,0-.2-.22.21.21,0,0,0-.29.06c-.05.09-.1.19-.14.28l-.08,0a.86.86,0,0,1,0,.16A9,9,0,0,0,32,14.16a2.15,2.15,0,0,1-.45.14l.43-1.3c0-.15,0-.3-.05-.45l-.38.09-.09,0,0-.06c.08-.18.17-.36.25-.53a.2.2,0,0,0-.34-.2A7.36,7.36,0,0,0,30.71,13h-.09v0l-.08,0a6.39,6.39,0,0,1,.58-1.4c.13-.22-.22-.42-.34-.2A8.62,8.62,0,0,0,30,13.21l-.42.12a9.44,9.44,0,0,1,.47-1.42c.1-.23-.24-.45-.36-.2A13.45,13.45,0,0,0,28.8,14c-.23.45-.46.9-.68,1.35a4.21,4.21,0,0,0-1.39.3.93.93,0,0,0-.26.15,7.61,7.61,0,0,1,.44-2.63l.13-.31,0-.07a5.21,5.21,0,0,1,.24-.47.22.22,0,0,0-.38-.23,6.6,6.6,0,0,0-1,3.4,6,6,0,0,0,0,.74l-.48.22h-.27c0-.16,0-.32,0-.48.06-.86.15-1.72.22-2.58,0-.21-.33-.25-.38-.05a7.92,7.92,0,0,0-.22,2.78l0,.37-.34,0h0v-.13c-.07-.61-.11-1.23-.15-1.84A3.54,3.54,0,0,1,25,12.66c0,.09.08.17.11.25a2.69,2.69,0,0,1,.3-.37,1.6,1.6,0,0,0-.05-.21Zm4.6-6.78a.77.77,0,0,1,.89-.39c-.24.92-.47,1.78-.7,2.64-.12.43-.12.43-.9.6,0,0-.1-.07-.1-.1A5.05,5.05,0,0,1,30.32,5.27ZM29.48,6c-.14.63-.28,1.26-.4,1.89-.06.37-.13.7-.6.7a3.81,3.81,0,0,1,1.21-3.26C29.61,5.58,29.53,5.78,29.48,6ZM27.19,7.32a8.93,8.93,0,0,0-.08,1.27c0,.43-.14.66-.65.66a3.21,3.21,0,0,1-.15-.53A5.16,5.16,0,0,1,26.8,6c.09-.19.31-.31.47-.47h0l0,.17a.15.15,0,0,0,.12.1C27.34,6.34,27.25,6.83,27.19,7.32Zm-1-1.48c.2.43,0,.7-.1,1s-.14.56-.24,1A2,2,0,0,1,26.18,5.84Zm1.39-3.25a3,3,0,0,0-.35,2c0,.14,0,.28,0,.42l-.6,0a2.77,2.77,0,0,0-.65.12,10.45,10.45,0,0,0,0-1.48A12.85,12.85,0,0,1,27.57,2.59ZM28.42,4a5.62,5.62,0,0,0,0,.82h-.22c0-.19,0-.38,0-.58a.07.07,0,0,0,0-.06,2.82,2.82,0,0,1,.18-.89,2.09,2.09,0,0,0,0,.25,2.25,2.25,0,0,0-.08.24A.15.15,0,0,0,28.42,4Zm.23,1.6L27.74,9c-.13-.25-.25-.38-.24-.48.1-.87.2-1.73.35-2.59a.49.49,0,0,1,0-.11A.13.13,0,0,0,28,5.65C28.17,5.53,28.43,5.58,28.65,5.55Zm.6-1.44c0,.15.07.32.11.49l-.27.08a6.73,6.73,0,0,1,.07-1.19A4.21,4.21,0,0,0,29.25,4.11ZM30,1.55c-.1.35-.26.69-.34,1a.68.68,0,0,0-.12-.12l0,0c.09-.16.19-.32.29-.47s-.14-.36-.28-.22a2.62,2.62,0,0,0-.22.25.69.69,0,0,1,0-.1.17.17,0,0,0,0-.14ZM33.59.89a7.55,7.55,0,0,0-.74,1.93l-.3.38a2.25,2.25,0,0,1-2.23,1.07c-.62-1.21-.43-2.16.65-2.73-.09.45-.16.83-.23,1.2a1.47,1.47,0,0,0,0,.75H31c0-.12,0-.24.05-.37a3.65,3.65,0,0,1,.59-1.75.85.85,0,0,1,.74-.44ZM35.41.82c-.22.33-.41.62-.59.91a.23.23,0,0,0-.15-.09.92.92,0,0,0-.29,0l.12-.62a.16.16,0,0,0,0-.12V.85ZM36.85.48s0,0,0,0v0a.08.08,0,0,0,0,0c-.21.42-.47.87-.67,1.32a1,1,0,0,0-.56,0h-.11c.18-.43.57-.78.36-1.28A4.58,4.58,0,0,1,36.85.48ZM39,.4,37.92,1.54a2.41,2.41,0,0,0-.38,0,4.33,4.33,0,0,1,.64-1.1A7.26,7.26,0,0,0,39,.4Zm1.77,3.13a.75.75,0,0,1,.11.31c.13-.1.24-.21.35-.3q.91,0,1.83.06l1,.15a4.76,4.76,0,0,1,2.16.72c-.48,1.06-1.21,2.1-.6,3.44L42.8,7.65c-.2-1.17.69-1.88,1.23-2.75V4.83l-1-.16a4.51,4.51,0,0,1-.92.93c-.08.31-.17.62-.28.92,0,.1-.19.09-.18,0a4,4,0,0,1,.22-1.13,1.28,1.28,0,0,0-.22-.24c-.2.47-.35,1-.51,1.45,0,.1-.19.09-.19,0a13.86,13.86,0,0,1,0-1.44l-.27.07c-.17,0-.34,0-.51,0a1.4,1.4,0,0,0-.59.06,1.19,1.19,0,0,1-.63.18,5.07,5.07,0,0,1-1.56,2.25l-.62,0,1-1c.28-.42.48-.9.73-1.35a1,1,0,0,0-.53.2,14.35,14.35,0,0,0-1.22,1.11,2,2,0,0,1-.63.52,5.15,5.15,0,0,1,.45-2c.11-.2.22-.41.34-.61a.2.2,0,0,0-.34-.2A5.45,5.45,0,0,0,36.3,5a14.45,14.45,0,0,0-1.12,2.62,3,3,0,0,1-1.3.4V8c0-.19.08-.38.13-.57.22-.69.45-1.38.67-2.08.08-.25-.29-.34-.39-.1a14.45,14.45,0,0,0-.74,2.31L33.4,8l-.17,0c0-.14,0-.29-.07-.44a3.47,3.47,0,0,0,0-.91,5.28,5.28,0,0,1,.31-1.29c.08-.21-.25-.33-.36-.15a5.71,5.71,0,0,0-.79,2.65L31,7.66a5.06,5.06,0,0,1,.73-2.43,1.36,1.36,0,0,1,1.25-.79,5,5,0,0,0,1.17-.29,11.21,11.21,0,0,1,3.59-.59,8.19,8.19,0,0,0,1,0ZM40.62.67c-.13.1-.32.32-.36.29-.24-.15-.7.16-.77-.49l1.06.06ZM42,.88l-.87.73a.51.51,0,0,0-.41-.07,2.44,2.44,0,0,1,.64-.79c.11-.12.39-.06.58-.09Zm3.79.94-.06,0a4.22,4.22,0,0,0-.72.86,3.78,3.78,0,0,0-.34.59l-.45,0c-.48,0-1-.07-1.45-.09l-.09,0s0,0,0,0A4.33,4.33,0,0,1,43,1.71c.07-.16-.2-.27-.28-.12-.2.41-.4.81-.58,1.23a.12.12,0,0,0,0,.08c-.24,0-.47,0-.71-.06.42-.69.52-1.43,1.24-1.73A.86.86,0,0,1,43.12,1,8.81,8.81,0,0,1,45.79,1.82Zm.73.58a2,2,0,0,0-.6,1c-.28,0-.56-.06-.83-.08.06-.13.12-.26.19-.38a5.77,5.77,0,0,1,.66-.88.19.19,0,0,0,0-.12l.22.15A1.19,1.19,0,0,1,46.52,2.4Zm.79.8a.67.67,0,0,1-.11.18,1.19,1.19,0,0,1-.34.3,0,0,0,0,0,0,0,2.73,2.73,0,0,0-.57-.19,2.16,2.16,0,0,1,.13-.41l.13-.21a1.07,1.07,0,0,1-.1.23C46.88,2.84,47.17,2.8,47.31,3.2Zm1.21,3.29a1.1,1.1,0,0,1,0,.18c.07-.49.1-1.11-.35-1.35s-1,.32-1.29.74a4.39,4.39,0,0,0-.53,2l0,0c-.18-1-.08-3.82,1.64-3.34C48.82,5,48.85,5.76,48.52,6.49ZM58.76,11a2.31,2.31,0,0,1-.64.9l0,0A3,3,0,0,0,57.15,10,.22.22,0,0,0,57,9.93v0a4.52,4.52,0,0,1,.21,1.51,1.75,1.75,0,0,1-.11,1.35l0,0a6,6,0,0,0-3.06,3,50.88,50.88,0,0,0-.26,5.09.22.22,0,0,1-.08.15c0,.11,0,.21.07.32a.21.21,0,0,1-.25.25l-.31-.13a6.17,6.17,0,0,0-2.55.11,12,12,0,0,1-1.21.53h0a10.21,10.21,0,0,0-1.26.65l0-.35s0,0,0,0A.18.18,0,0,1,48,22.3a3,3,0,0,1,2.13-2.68c0-.24.07-.48.12-.71a3.64,3.64,0,0,0-1.35.81.32.32,0,0,1-.35.06l.29-.48a4.55,4.55,0,0,1,.42-.45,6,6,0,0,1,1-.7.29.29,0,0,0,.11-.14l.06,0v-.58a11.27,11.27,0,0,0-1.39.25l-.5.32s-.05,0-.07,0l-.2.15a.19.19,0,0,1-.19,0c0-.3.07-.6.11-.9a4.15,4.15,0,0,1,.73-.61c.27-.14.54-.26.8-.37a2.28,2.28,0,0,1,.51-.09,1.67,1.67,0,0,1,.32-.08,7.62,7.62,0,0,1,.94-.14,5.84,5.84,0,0,0,.33-.53l-.28,0a3.39,3.39,0,0,0-.64-.06h0a8.54,8.54,0,0,1-1.6.2l-.76.4a.16.16,0,0,1-.16,0c.08-.44.17-.88.29-1.31a5.13,5.13,0,0,1,1.81-.86.19.19,0,0,1,.13,0,7,7,0,0,1,1-.23,4.28,4.28,0,0,1,.8-.11l.12-.17.07-.15.06-.12L52.38,13a4,4,0,0,0-3.34.38,11,11,0,0,1,.6-1.31,3,3,0,0,1,.88-.2l.2-.11a3.7,3.7,0,0,1,2.18.34,3.82,3.82,0,0,1,.68.45l-.14-.08a4.7,4.7,0,0,1,.48.74l.46-.42.11-.18a.13.13,0,0,1,.08-.07v0a3.5,3.5,0,0,0-1.25-1.18A3.12,3.12,0,0,0,51.69,11l-.28-.07,0,0c-.31.09-.62.17-.94.23a.2.2,0,0,1-.17,0l-.13,0a.29.29,0,0,0-.27-.21l0-.05q.54-.66,1.05-1.35a5.08,5.08,0,0,1,1.82.09l.17,0a.36.36,0,0,1,.18,0,4.09,4.09,0,0,1,.82.37l.36-.39a7.56,7.56,0,0,0-1.91-1.32c.46-1.65,1.83-1.95,3.19-1.54h.1C57.4,7.62,58.79,9.21,58.76,11Zm-2.31,2.7a9.23,9.23,0,0,1-.91.85A4.88,4.88,0,0,1,56.45,13.69ZM70.87,42.88a5.73,5.73,0,0,1,1-.15h.33l-.08,0Q71.5,42.81,70.87,42.88ZM65.59,62.42a6.36,6.36,0,0,1-.77-.43l.82.07.4,0Zm-4.5-1.8a1.44,1.44,0,0,0,.19-.37,1.78,1.78,0,0,1,.37.26c.75.66,1.53,1.29,2.31,1.92a5.59,5.59,0,0,0,.66.41l.12-.16-1.16-.92c-.52-.44-1-.88-1.54-1.33a.41.41,0,0,1-.11-.23.13.13,0,0,0,.14-.06v0a13,13,0,0,0,3.26,2.51l-.83.61c-1.08-.8-2.14-1.55-3.16-2.35A1.66,1.66,0,0,1,61.09,60.62Zm-1-4.65c-.13-.55-.32-1.1-.45-1.64s-.21-.9-.3-1.35l0,0a.54.54,0,0,0-.05-.11.07.07,0,0,0,0,0v-.05a.17.17,0,0,0-.06-.11l-.06-.32A.15.15,0,0,0,59,52.2l-.34.24a.15.15,0,0,0-.07.16,12.16,12.16,0,0,0,.57,2.23c0,.12,0,.23.07.35a6.35,6.35,0,0,0,.25,1.13c.28.91.57,1.82.86,2.72a.12.12,0,0,0-.08.06h0a16.51,16.51,0,0,1-.75-1.66,18.43,18.43,0,0,1-1-4.7A1.76,1.76,0,0,0,58,51.52c-.21-.21-.24-.59-.36-.9-.19-.51-.35-1-.59-1.54a1.12,1.12,0,0,0-.2-.34h-.38a.08.08,0,0,1-.09-.08h0a2.22,2.22,0,0,0,.18.49c.07.24.18.48.27.71s.17.41.27.62h0v0c-.42-.68-1-1.59-1.26-2,0-.11-.07-.19-.05-.23a.19.19,0,0,0,0-.08,3.15,3.15,0,0,1-.43.05h0a.83.83,0,0,0,.18.49c.17.63.64,1.16.87,1.8a4.48,4.48,0,0,1,.84,1.23,2.33,2.33,0,0,0-.11.28,0,0,0,0,0,0,0h0l0,.09a32.65,32.65,0,0,1-1.85-3.11v0a2.77,2.77,0,0,1-.1-.26,2.83,2.83,0,0,0-.37-1.47,1.57,1.57,0,0,0-.5-.71c.29-.28.57-.58.84-.88.27.25.57.48.85.71.54.42,1.11.81,1.68,1.2.1-.31.22-.61.33-.92A8.31,8.31,0,0,1,55.83,44l2.23,2.46c0-.11.07-.21.1-.32a18.57,18.57,0,0,1-2.93-3.82,18.23,18.23,0,0,0,3.05,3.24,1.49,1.49,0,0,0,0-.21.5.5,0,0,1,0-.13L58.17,45c-.72-.8-1.45-1.59-2.16-2.4a3.82,3.82,0,0,1-.48-.77.62.62,0,0,1,0-.43,6.61,6.61,0,0,0,2.06,2.18C57,42.37,55.88,41.37,55.45,40l1.68,1.73.16-.14-1.63-2c-.91-.24-1.23-1.1-1.81-1.69a11.21,11.21,0,0,0-1-.83,3,3,0,0,1,.26-.42c.59-.65,1.19-1.29,1.77-1.94A2.27,2.27,0,0,0,55.46,32l.63,0c.2,0,.45.05.56-.16s-.25-.22-.32-.23a9.53,9.53,0,0,0-1.19-.09,1.59,1.59,0,0,0-.13-.13l-.21-.24h.81a.16.16,0,0,0,0-.32h-1a3.51,3.51,0,0,1-.39-.93c-.22-.9-.52-1.78-.79-2.67a4,4,0,0,1-.09-.47c.37.24.38.24.93,1.72.19.54.36,1.08.61,1.62l.13-.08A.17.17,0,0,0,55,30c-.25-.84-.5-1.68-.76-2.52-.07-.25-.24-.52.23-.7.14.35.29.7.43,1l.11,0h0c0-.18,0-.37-.06-.59a1,1,0,0,0,.45-.32,2.13,2.13,0,0,1,.82-.6,3.3,3.3,0,0,1-.21-.65l.4.39a.54.54,0,0,1,.1-.16.22.22,0,0,1,0-.08,4.56,4.56,0,0,0-.63-1.21c-.29-.49-.59-1-1-1.59a4.3,4.3,0,0,1,1.45,1.7,1.36,1.36,0,0,0,.17.41.47.47,0,0,0,.14.14,1,1,0,0,1,.33-.34c-.56-1-1.39-1.92-1.95-3l1.14,1c.32.27.47.7.77,1,0-.09.09-.17.14-.26-.47-.69-1-1.38-1.37-2.11s-.86-1.67-1.29-2.51l.17-.1.13.21h0a.43.43,0,0,1,0,.07l.3.48s0,0,0,.06c.25.41.53,1.09,1.06,1.13l0,0A8.47,8.47,0,0,1,55,19c-.05-.11.11-.21.17-.1a8.11,8.11,0,0,0,1.27,1.85l.19-.19c-.33-.59-.72-1.16-1.07-1.74l-.3-.54c-.2-.42-.41-.84-.61-1.27l.15-.07c.79.72.9,1.84,1.55,2.65v0l0,0a10.27,10.27,0,0,0-1.45-3.11.8.8,0,0,1,0-.15,2.81,2.81,0,0,1,.49-.91l.87-.49a1.89,1.89,0,0,1,.7,0,1.9,1.9,0,0,0,.75,0,2.2,2.2,0,0,1,2.06.83c1,1.08,2.14,2.1,3.2,3.17a9.5,9.5,0,0,1,2.12,3.35A30.3,30.3,0,0,0,67.84,27a2.48,2.48,0,0,1,.69,2h0a2.24,2.24,0,0,0-.6.25,2.57,2.57,0,0,0-.08-.4,11.38,11.38,0,0,0-1.28-1.32c-.34-.09-.68-.17-1-.23a2.42,2.42,0,0,0-1.72.42l-.15.11a1.34,1.34,0,0,0-.62.17l-.17-.06c-.1.11-.18.23-.27.34a2.74,2.74,0,0,0-1.15.28,23.28,23.28,0,0,0-.37-2.75l-.3.08a.87.87,0,0,0-.14.27,7.33,7.33,0,0,1,0,2.6h0l0,.27h-.07a3,3,0,0,0-.49.21A.32.32,0,0,1,60,29c0-.9-.2-1.78-.26-2.68l-.08-.14-.15.1a1.67,1.67,0,0,0,0,.29c0,.5,0,1,0,1.51,0,.34.11.7-.38.81a.12.12,0,0,0,0,.05c0-.55,0-1.11-.06-1.66a.07.07,0,0,0-.14,0c-.06.58,0,1.17-.06,1.75,0,.18,0,.37,0,.56l-.89,2.23.68.39.49-.36a.09.09,0,0,0,.13-.05l0-.07.22.22a.9.9,0,0,1,.86-.6c.17,0,.35-.17.52-.26a4.34,4.34,0,0,0,.71-.37,2.4,2.4,0,0,0,.24-.22l0,0a.16.16,0,0,0,.3,0c0-.13,0-.26.09-.39a2,2,0,0,0,1.44.11,1.22,1.22,0,0,1,.73,0c.39.17.49-.06.62-.32.32.14.64.26,1,.41a.78.78,0,0,1,.53.88.88.88,0,0,1-.71.7l-2.93.66a1.81,1.81,0,0,0-.31.09l-.13-.15c-.11-.16-.23-.32-.33-.49s-.1,0-.09,0a2.3,2.3,0,0,0,.27.57l.08.1-.12,0c-.28-.29-.55-.56-.81-.84l-.13.08,0,.37-.62-.44-.7.41.42.63a4.54,4.54,0,0,1,.69.82.76.76,0,0,0,.3.47.22.22,0,0,0,.31-.24s0,0,0,0a.46.46,0,0,0,0-.26,4.09,4.09,0,0,1,2.69.86c.79.48.95.58,1.37.09l.1,0H66l.15.26,0,.05.66,1.38c-.37-.13-.39-.53-.59-.77h0l-.16-.18-.14-.2c-.06-.05-.17,0-.14.09h0a.12.12,0,0,0-.08,0l0,0a.27.27,0,0,1,0,.15s0,0,0,0h0l.43,1L65,37.08a9.81,9.81,0,0,1-1.93-1.2c-.77-.37-1.53-.75-2.28-1.16a.6.6,0,0,0-.48.49h0a7.84,7.84,0,0,1,.93.55l1,.51a1.56,1.56,0,0,1,.47.22l.05,0a.27.27,0,0,1,.11.1l.07.05c.39.32.79.61,1.19.92a1.23,1.23,0,0,0,1.42.13,1.18,1.18,0,0,1,1.32,0c.24.13.48.25.73.36.06-.17.13-.34.2-.52a.18.18,0,0,1,.05-.07.86.86,0,0,0-.07-.1.57.57,0,0,0,0-.36,5.8,5.8,0,0,0-.74-1.2,8.47,8.47,0,0,0-.58-.89,0,0,0,0,0,0-.05h.06l.14-.07,0,0c.57.82,1.18,1.62,1.79,2.41h0l0,0c.09.12.27,0,.2-.16a11.09,11.09,0,0,0-1.1-1.63,6.58,6.58,0,0,1-.46-.92l1.33,1.65.19-.14L67.94,35c0-.06-.11-.12-.16-.19l.09.07a8.27,8.27,0,0,1-.64-1.17.23.23,0,0,1,0-.18l-.09-.15-.14,0v-.15a.37.37,0,0,0,.05-.11s0,0,0,0v-.09c.14.16.28.3.42.44a.2.2,0,0,0,.34-.15,8.33,8.33,0,0,0,.5.67c.19.2.46-.09.3-.29s-.51-.61-.74-.93c-.1-.13-.18-.29-.29-.44a.17.17,0,0,0,.1,0l.27.34a.31.31,0,0,0,0,.16.16.16,0,0,0,.19.11c.41.52.82,1,1.27,1.54.14.17.43-.06.3-.23-.43-.55-.89-1.09-1.35-1.62l0-.24a1.17,1.17,0,0,0,0-.38l.5.38a.2.2,0,0,0,.16.05l0,0h.06c.19.22.33.33.33.36l1.4,1a3.79,3.79,0,0,1,.68.58c.59.71,1.15,1.46,1.74,2.17s1.36,1.67,2.1,2.45a2.64,2.64,0,0,1,.65,1,.94.94,0,0,1,.15.3,1,1,0,0,1,0,.91c-.72.42-1.43.84-2.18,1.21a.12.12,0,0,0-.06.08.09.09,0,0,0-.08-.05,1.28,1.28,0,0,0-.27.05l.41.34.43-.21s0-.06,0-.1a9.35,9.35,0,0,0,1.56-.91,6.12,6.12,0,0,1-.31.56c-.54.26-1.09.48-1.63.72l.15.14,0,0a6.07,6.07,0,0,0,1.21-.57l-.35.41-.15.14-.67.12a.11.11,0,0,0,0-.09.2.2,0,0,1-.07.27,2,2,0,0,1-.83.13.2.2,0,1,1,0-.4h.22a4.07,4.07,0,0,0-.63-.46h0a2.85,2.85,0,0,0-1-.08,5.15,5.15,0,0,0-.86.3.26.26,0,0,1-.15,0,1,1,0,0,1-.93.09.91.91,0,0,1-.52-.86,4.45,4.45,0,0,1-.29-2.14.77.77,0,0,1,1.16-.64c.28.11.54.27.81.4l2.14,1,.34.23c.16.12.35-.07.32-.24a.19.19,0,0,0,0-.09c0-.82-.16-1-1-1.33-.56-.2-1.14-.35-1.79-.55a.79.79,0,0,1-.79.2,1.18,1.18,0,0,0-1.34.44l-.21.24a14.54,14.54,0,0,0-.92,1.35c0,.37.08.74.11,1.11a11.53,11.53,0,0,1-.5,3.08c-.1.29.39.42.45.12a.59.59,0,0,0,0-.13A.14.14,0,0,0,68,45a2.18,2.18,0,0,0,.4-1l.28.07a1.21,1.21,0,0,1,.64-.09,6.5,6.5,0,0,0,1,0,.56.56,0,0,1,.58.37,7.06,7.06,0,0,0,.76,1.19l0,.07a13.48,13.48,0,0,0,.69,1.66,1.08,1.08,0,0,0-.31,0l-.06.05a5.68,5.68,0,0,0-1.82.74.24.24,0,0,1-.1.13,5.65,5.65,0,0,1-1.53.62.83.83,0,0,1,0,.15l1.16.14a0,0,0,0,1,0,0l1.18-.07a1.41,1.41,0,0,1,.62.17h.08a.77.77,0,0,1,.46.5h0c.23.3.58.79.33,1.18a.61.61,0,0,1-.19.17.35.35,0,0,1-.4.2,2.65,2.65,0,0,1-.3-.11,1.53,1.53,0,0,0-.69-.33,2.23,2.23,0,0,0-.51-.26,3.53,3.53,0,0,0-1.4-.44l-.06,0-.63.15,0,0a.2.2,0,0,0,.14.23h0l-.06.07a.32.32,0,0,0,0,.17.05.05,0,0,0,.05.05c-.09.13,0,.37.19.31a2.37,2.37,0,0,1,.36-.09l.15,0a1.82,1.82,0,0,1,.27.15l-.15.05a1.23,1.23,0,0,0-.46.18.14.14,0,0,0,.1.24,1.56,1.56,0,0,0,.5-.17l.28-.11.21.19-.31.1a1.6,1.6,0,0,0-.47.19c-.14.11-.12.37.09.36a1,1,0,0,0,.38-.1.34.34,0,0,0,.24.21l-.08.07-.25.22a3.48,3.48,0,0,0-.6.4c-.12.1,0,.29.17.21a12.26,12.26,0,0,1,1.31-.65l.3,0a.89.89,0,0,0,.3,0,.54.54,0,0,1,.07.13c.44,1.26,1.16,2.44,1.06,3.87a3.22,3.22,0,0,1-.89,1.69c-.08.11-.32.11-.49.15-.33.08-.66.14-1,.22l-.17-.32h-.31c0,.43.28.79.18,1.22A2.22,2.22,0,0,1,69,58.11h-.13a.1.1,0,0,1,0-.19H69a1.8,1.8,0,0,0-.08-.21l-.23,0c0,.37,0,.75,0,1.13,0,.18,0,.36.07.54H68.7v-.08a.09.09,0,0,1-.14,0,9.34,9.34,0,0,1-.19-1.58l-.27,0c0,.62.07,1.2.12,1.9-.46-.7-.24-1.52-.64-2.12l-.17,0,.16,1.41-.16,0-.59-1.83-.16,0a12.05,12.05,0,0,0,.32,2c-.1-.25-.21-.49-.3-.74s-.16-.58-.23-.88-.11-.49-.16-.75l-.34,0,0,.36v0c.16.54.31,1.09.47,1.63a2.28,2.28,0,0,1-.29-.34.12.12,0,0,1-.14,0,4.15,4.15,0,0,1-.76-2,2.86,2.86,0,0,0-.75-.23,4.23,4.23,0,0,0-.49-.06,5.15,5.15,0,0,0,.41,1.24c.83,1.27,1.72,2.51,2.58,3.75a2.71,2.71,0,0,1-.54.69,2.43,2.43,0,0,0-.61-.09c-.42-.05-.84-.11-1.25-.13a.17.17,0,0,0-.18.12,10.34,10.34,0,0,1-1.66-1.51c-.21-.23-.43-.43-.64-.64a1.68,1.68,0,0,0-.49-.55,15.83,15.83,0,0,1-1-1.58l-.11-.21v0Zm7.8-11.57c0-.19.08-.38.11-.57l.07,0A2.72,2.72,0,0,1,67.94,44.4Zm0-14.41c0-.13,0-.25,0-.38l.11-.06.42-.23c0,.13,0,.26,0,.41A4.81,4.81,0,0,0,67.94,30Zm.46.07s0,.08,0,.12l0,.17,0,0a.86.86,0,0,1-.07.1c0-.07-.05-.16-.14-.12l-.16,0Zm-1.32,3.82a.55.55,0,0,0,.18.22.7.7,0,0,0,.09.17c-.16-.2-.3-.4-.44-.61a.43.43,0,0,0,0,0H67a.21.21,0,0,0,.06.1l0,0A.18.18,0,0,0,67.08,33.88Zm-1.49,0a2.21,2.21,0,0,0-.23-.32,1,1,0,0,0-.57-.4l0-.08.75-.18a.21.21,0,0,1,.11.19v.73A.14.14,0,0,1,65.59,33.86ZM52.65,47.63a.47.47,0,0,1-.06-.19h0a.11.11,0,0,0,.13.05.94.94,0,0,0,.43-.3h0l.1-.07a.09.09,0,0,0,0-.12,1,1,0,0,1,.25.06.14.14,0,0,0,.17.17h.22a1.69,1.69,0,0,1,.76.87,8.34,8.34,0,0,1-.18,2.72A6.22,6.22,0,0,1,54,52.38a.43.43,0,0,0,0,.07.41.41,0,0,1-.22,0,.63.63,0,0,1-.37.22.46.46,0,0,1-.49-.19,7.23,7.23,0,0,0,.32-1h0a2.77,2.77,0,0,0-.37.22,8.94,8.94,0,0,1-.6,1.54.44.44,0,0,1-.32,0l-.07.05,0-.07s0,0,0,0a2.6,2.6,0,0,1-.15.42l-.67.32a3.41,3.41,0,0,0,.06-.43c0-.27-.4-.31-.47-.06a6.58,6.58,0,0,0-.15.67.93.93,0,0,1-.05.1v0c-.16.08-.32.16-.47.25h-.15a.49.49,0,0,1-.21-.08c-.06.12-.11.25-.17.37l-.29.08a5.81,5.81,0,0,0,.42-2.42,9.51,9.51,0,0,0-.16-1.92c0-.28-.07-.57-.13-.86a.45.45,0,0,1,.86-.24,4,4,0,0,1,.26,1,.21.21,0,0,1,.06-.1c-.05-.32-.11-.64-.17-1a.45.45,0,0,1,.87-.24l.11.44a1.2,1.2,0,0,1,.41.33c-.1-.3-.21-.59-.27-.86-.09-.42.44-.79.75-.44a3.17,3.17,0,0,1,.82,1.55,1.2,1.2,0,0,1,.46-.16A3.39,3.39,0,0,0,52.65,47.63Zm-3.57,9.52a.44.44,0,0,1,.25-.17,1.11,1.11,0,0,1,1.21.16,11.62,11.62,0,0,1-.33,3.14,8,8,0,0,1-.42,1.13l-.69.3-.15,0A7.89,7.89,0,0,0,49.08,57.15Zm3.16-1.54,0,0a1.35,1.35,0,0,1,.56-.55.37.37,0,0,1,.28-.19h0a.4.4,0,0,1,.28-.11,2.4,2.4,0,0,1,.26-.18.46.46,0,0,1,.68.39,10,10,0,0,1-.61,3.6c0,.16-.06.33-.1.5-.54.39-1.07.77-1.61,1.13a3.92,3.92,0,0,1-.94.69.21.21,0,0,1-.2,0l-.37.21c.08-.23.16-.45.22-.67A8.09,8.09,0,0,0,51,57.26c0-.1,0-.21,0-.31.06-.41.53-.4.75-.15a8.43,8.43,0,0,1,.05.86v.05a5.24,5.24,0,0,0,.69-.28A3.76,3.76,0,0,0,52.24,55.61ZM53.17,46c.17-.62.69-1,1-1.52a3,3,0,0,0,.36.6h0c-.24.33-.52.58-.78.88-.08.1,0,.27.14.19a3.7,3.7,0,0,0,.8-.87l.17.18a10.66,10.66,0,0,0-.88.9,2.07,2.07,0,0,0-.75-.28A.39.39,0,0,0,53.17,46Zm1.94,9.85h0a.15.15,0,0,0-.14-.15l0-.3A9.18,9.18,0,0,1,56,56.5l.15.16h0l0,0c.26.27.53.53.78.81.08.09,0,.23-.13.14l-.1-.1a1.29,1.29,0,0,1-.65-.61l-.22-.29Zm.52,1.81c.43.38.84.78,1.26,1.16,0,.07,0,.14,0,.21l-.08.16c-.35-.21-.72-.42-1.06-.66a3.28,3.28,0,0,1-.58-.49,2.72,2.72,0,0,0,0-.28v-.68C55.3,57.3,55.46,57.5,55.63,57.69ZM58,57a6.93,6.93,0,0,0,.26.72,1,1,0,0,0-.17.1c-.12-.17-.23-.34-.34-.53-.23-.41-.42-.84-.62-1.26l0,0a.09.09,0,0,1,.06-.06c.06-.12.13-.23.2-.35a.1.1,0,0,1,.17,0c.13.42.23.85.35,1.27l0,0A.13.13,0,0,1,58,57Zm-.91-2.22a5.13,5.13,0,0,1-1.56-2.15.08.08,0,0,1,.07-.11c0-.06.1-.11.15,0,.35.39.66.79,1,1.19a1.25,1.25,0,0,1,.58.71.54.54,0,0,1,.05.11.24.24,0,0,1,0,.14.49.49,0,0,1,0,.17l-.06,0a.09.09,0,0,1-.07,0l-.08,0Zm-.57,1a.5.5,0,0,1,0,.22.1.1,0,0,1-.14.06c-.2-.13-.41-.27-.61-.43l0,0,0,0A2.34,2.34,0,0,1,55,54.7a4.43,4.43,0,0,1,.06-.51.1.1,0,0,1,.07,0,6.14,6.14,0,0,1,.43.45l1,1A.09.09,0,0,1,56.5,55.79ZM57,53.57a13,13,0,0,1-1.67-2.89c.39.13.53.47.72.77l.58.95A1.72,1.72,0,0,1,57,53.57Zm3.14,7a11.52,11.52,0,0,1-1.65-3.92c-.17-1.31-.41-2.62-.63-3.93-.05-.25-.17-.5-.21-.77a1.36,1.36,0,0,1,.49,1c.14,1.06.26,2.14.43,3.2a9.24,9.24,0,0,0,.4,1.67,8.83,8.83,0,0,0,.62,1c.27.53.51,1.07.79,1.69l-.14.18A.38.38,0,0,1,60.16,60.53Zm.67,16.12c-.36-1.17-.66-2.36-1-3.54-.23-.92-.43-1.85-.63-2.78,0-.06,0-.13,0-.35a20.63,20.63,0,0,1,4.14,9.19L63.24,79c-.59-.48-1.18-1-1.78-1.41L61,77.26C60.93,77.06,60.89,76.84,60.83,76.65Zm-2.65-7.3.33,0a2.62,2.62,0,0,1,.15.39c.27,1,.49,2,.75,3.07s.51,1.89.75,2.83c.07.26.09.53.14.79l-.17.09a12.35,12.35,0,0,1-1-.89,1.05,1.05,0,0,1-.18-.62c-.08-.88-.1-1.76-.2-2.63s-.29-1.57-.43-2.36C58.26,69.81,58.22,69.58,58.18,69.35Zm-1-4.14c-.49-.23-1-.53-1.45-.77L52.54,62.9c-.32-.16-.63-.35-1-.53.23-.42.49-.34.76-.26,1.12.37,2.26.67,3.35,1.11,1.25.5,2.46,1.11,3.68,1.67.26.12.49.26.68.36-.35.9-.51,1-1.16.69S57.73,65.48,57.16,65.21ZM56.32,74c0-.51,0-1,.11-1.53.12-.69.27-1.37.43-2.06a.42.42,0,0,1,.21-.11.49.49,0,0,0,0,.12,5.53,5.53,0,0,0,.22,2,16.62,16.62,0,0,0,.78,2.78l-.3-.16-.23-.16-.25-.17L57,74.43Zm-1.26-5.07.07,0a8.28,8.28,0,0,0,.11,2,.83.83,0,0,0,.07.59.55.55,0,0,1,0,.19h-.22A5,5,0,0,1,55.06,68.89Zm-.64-3.33c1.17.68,2.34,1.12,3.39,1.79l-.06.16-.44-.13c-.71-.26-1.41-.53-2.11-.77A1.1,1.1,0,0,1,54.42,65.56Zm-.11,3.13.25.08c0,.2,0,.45,0,.82a16.46,16.46,0,0,0,0,1.72c0,.52.12,1,.18,1.6l-.68-.45a1.65,1.65,0,0,1-.13-.52A11.2,11.2,0,0,1,54.31,68.69Zm-2-4.47c.86.4,1.13,1.14,1.61,1.75C53.25,66.08,53.05,65.87,52.34,64.22Zm.23,6.35a5.88,5.88,0,0,0,.14-.73h0a.1.1,0,0,0,0-.06s0,0,0,0a.17.17,0,0,0,.12,0h0c0,.28.06.56.11.84.09.45.25.89.41,1.42l-.91-.6A1.48,1.48,0,0,1,52.57,70.57Zm-1.32-.71a17.92,17.92,0,0,1,.54-2.68c.31.11.68.06.63.46A17.31,17.31,0,0,1,52,71C51.16,70.59,51.14,70.59,51.25,69.86ZM50,69.75c.23-1,0-2.17.69-3.19l.76.17c-.24,1.18-.46,2.27-.7,3.43Zm-2.81-1.88.38-.58A26.88,26.88,0,0,0,49.13,65l.73.35,0,0a18.7,18.7,0,0,1-.58,3.77C48.56,68.71,47.88,68.27,47.19,67.87Zm-1-.61A18.54,18.54,0,0,0,48,64.71l.29-.1a.23.23,0,0,0,.14,0,3.28,3.28,0,0,0,.31.2A24.53,24.53,0,0,0,47.3,67l-.5.69-.18-.1-.22-.13Zm.28-1.07a.88.88,0,0,1,0-.15c.28-.35.55-.7.8-1.08l.11,0C47.08,65.35,46.76,65.78,46.43,66.19Zm-.26-8.54a2.43,2.43,0,0,1,.54,1,4.68,4.68,0,0,0-.17-.78c-.18-.56.69-.79.87-.24a6.69,6.69,0,0,1,.26,1.64l.2-.11c0-.12,0-.24,0-.36s.17,0,.16-.14a9,9,0,0,0-.26-1.55.46.46,0,0,1,.76.18,6.51,6.51,0,0,1,.18,2.76c-.26.48-.4,1-.62,1.52l-.17.34-.26.32-.83.28a4.14,4.14,0,0,0,.33-1,5.23,5.23,0,0,0,.12-.54.18.18,0,0,0-.35-.1l-.69,1.73a1.63,1.63,0,0,0-.58.08,4.48,4.48,0,0,1,.11-.5c0-.6.11-1.2.13-1.8s.1-1.56-.37-2S45.76,57.24,46.17,57.65Zm1.41-3.42a.38.38,0,0,1,0-.19c0-.56,0-1.11-.07-1.66a3.33,3.33,0,0,0-.2-1.26c-.28-.51.5-1,.77-.46a3.46,3.46,0,0,1,.3,1.38c.06.53.08,1.05.09,1.58l0,0q-.06.3-.15.6l-.06.18-.55.17-.15.05C47.54,54.47,47.56,54.35,47.58,54.23Zm-3.21,8.88a7,7,0,0,1,.13-.8,7,7,0,0,0,.2-2.23,3.24,3.24,0,0,1,.06-.82l.35,0,.11,0a14.69,14.69,0,0,1-.53,3.91Zm0-13.66c0-.45.05-.9.1-1.36a8.42,8.42,0,0,1,0-3.5.46.46,0,0,1,.67-.27,2.63,2.63,0,0,1,.92,1.5h0l.34-.11c.05-.45.1-.9.17-1.34s.59-.39.79-.11c0,.42,0,.85-.07,1.27a.2.2,0,0,1,.12.08l.22,0,.14,0c0-1,0-2,.07-2.93h0a5,5,0,0,0,.67-.14l.13,0c.05-.18.37-.15.4.08a8.64,8.64,0,0,1-.18,3.65,2.68,2.68,0,0,1-.07.27l.86-.33a9.48,9.48,0,0,0,.33-2.84c0-.28.07-.56.1-.84.31-.15.61-.32.91-.5a.41.41,0,0,1,.06.23c0,.55,0,1.1-.07,1.65.13-.06.24-.17.35-.23a.21.21,0,0,1,.24,0,10.5,10.5,0,0,0,0-2.1.52.52,0,0,1,.2-.09.35.35,0,0,1,0-.14c.06-.19.23-.28.39-.41a8.82,8.82,0,0,0,.84-.77l0,0c-.07-.46.7-.63.9-.14a4.07,4.07,0,0,1,.21,2.4.6.6,0,0,1,0,.2,5.27,5.27,0,0,1-2,3.38,4.17,4.17,0,0,1-.37.36.21.21,0,0,1-.08.11l-.15.1-.3.25-.22.07A15.68,15.68,0,0,1,46,48.89l-.2.14-.08,0a4.44,4.44,0,0,1-.32.57h-.05l-.64.17-.38.1A.49.49,0,0,1,44.4,49.45ZM43.3,29.73a1.1,1.1,0,0,1,.72.35,3,3,0,0,1,.41,2.53,3.68,3.68,0,0,1-.26,1.31v0a.22.22,0,0,0-.14-.06,9.92,9.92,0,0,0,0-1.49A5.89,5.89,0,0,0,43.3,29.73Zm-.12,27.75a.78.78,0,0,1,0,.26l-.72.22a12.16,12.16,0,0,1-.08-1.91,11.07,11.07,0,0,1,.35-2.11,3.26,3.26,0,0,1,.49,2.17A5.63,5.63,0,0,1,43.18,57.48Zm-3,7.3c.1-.33.1-.69.17-1a1.33,1.33,0,0,1,0-.19c.18-.38.33-.77.48-1.16l.75,0a.24.24,0,0,1,0,.18,4.74,4.74,0,0,0-.4.92,10.37,10.37,0,0,1,.26,2c.29.18.5.13.65,0a2.82,2.82,0,0,0,.28-1c0-.19,0-.37,0-.54s0-.17,0-.27a.28.28,0,0,1,.3-.32,8.12,8.12,0,0,1,0,1.71,3.43,3.43,0,0,1-.9,1.69l-.12,0h0l0,0a2.1,2.1,0,0,1-.36,0l-.07,0-.08,0a2.28,2.28,0,0,1-.74-1.16A4,4,0,0,1,40.17,64.78Zm-5.77,4.5A5.84,5.84,0,0,1,33,66.65a.2.2,0,0,0,.1-.12l0-.09.48-.25c.09,0,.19-.09.28-.15a.2.2,0,0,1,.08.1h0a.24.24,0,0,1,0,.09A10.09,10.09,0,0,0,35,69.1l.15.24a2.43,2.43,0,0,0-.47.28s0,0,0-.06l-.2-.26Zm-2.08-6,0,0L32.7,63a0,0,0,0,0,0,0l.33-.17,0,0a12.69,12.69,0,0,1,1.65-.67,16.56,16.56,0,0,1,2.79-.72l.42,0a.18.18,0,0,0,.14-.11c.38-.1.75-.19,1.14-.26a.23.23,0,0,1,.28.28l-.12.33h0c-.14.51-.31,1.08-.45,1.65a3.18,3.18,0,0,0,.47,2.59c.38.56.36.57.23,1.28l-.67-.34c0,.22-.09.44-.14.71-.46-.25-.55-1.1-1.26-.62a6.72,6.72,0,0,1-.63-.78,1.71,1.71,0,0,1-.3.09h-.23a2.52,2.52,0,0,0,.56,1.09c.26.4.61.75.87,1.16a3.54,3.54,0,0,1-1.52-1.47,5.94,5.94,0,0,1-.6-1.37,1.74,1.74,0,0,1,0-1l-.35.07q-.11.4-.18.81c0,.2.1.42.15.64a6.18,6.18,0,0,0,1.47,2.93,4.14,4.14,0,0,1-1.87-3,6.94,6.94,0,0,0-.09-1.29c-.33.09-.67.18-1,.3l-1.12.44a.17.17,0,0,1-.1,0,1.39,1.39,0,0,0-.1,1.18,6.67,6.67,0,0,0,.65,1.5,1,1,0,0,1,.17.86,9.43,9.43,0,0,0-.82-1.14,5.49,5.49,0,0,0-.26-.78A10.41,10.41,0,0,1,32.32,63.25ZM31.53,58a1.29,1.29,0,0,0,0-.19,4.27,4.27,0,0,1,.36-1.76l.09-.38c0-.14.23-.24.4-.4a1,1,0,0,1,0,.19,1,1,0,0,1,.38-.14,1.4,1.4,0,0,1,1-.06.23.23,0,0,1,.13.33,12.51,12.51,0,0,0-.36,1.72l.06.73.18,0a.21.21,0,0,1,.13-.26l.07,0a.16.16,0,0,1,.14-.19l.26-.07c-.06-.55-.1-1.11-.11-1.67a.34.34,0,0,1,.68,0,7.23,7.23,0,0,0,.18,1.49h0a15.16,15.16,0,0,1,.21-2c.07-.43.72-.25.65.18A13.52,13.52,0,0,0,36,57.15a16.9,16.9,0,0,1,1.87-.29A3.24,3.24,0,0,1,37.74,55a5.52,5.52,0,0,1,.09-.68.27.27,0,0,1,.1-.18l.27-.05a.28.28,0,0,1,.13,0l.13-.1c.95-.2,1.88-.45,2.81-.71l.33-.06a.21.21,0,0,1,.19.26,6.61,6.61,0,0,1-.28.74c.12.12.08.37-.12.35h0c-.09.43-.16.86-.22,1.29a32.41,32.41,0,0,0,1.26,3.16c0,.13-.08.24-.2.25-2.09.22-4.17.49-6.24.83a11.24,11.24,0,0,1-3.43,1.08.23.23,0,0,1-.21-.16.18.18,0,0,1-.15-.16.24.24,0,0,1-.15-.11,7.34,7.34,0,0,1-.47-2.5A.35.35,0,0,1,31.53,58Zm-1.78,8.16,0-.22a5.08,5.08,0,0,1,0-1.3l.36-.16c.23-.07.45-.15.67-.24a9.13,9.13,0,0,0-.12,1,3.1,3.1,0,0,0,.23,1.21A10.83,10.83,0,0,0,31.39,69c0,.17,0,.35.05.53-.1,0-.19.06-.29.09A13.19,13.19,0,0,1,30,67.76a6.81,6.81,0,0,1-.16-1.19c0-.12,0-.24,0-.36Zm-.67-8.11a6.58,6.58,0,0,0,0-1.66v-.09a.22.22,0,0,0,0-.08l1.24-.46a11.1,11.1,0,0,0-.28,3.9h0l.17-.07a14.56,14.56,0,0,1,.45-3.28,4.13,4.13,0,0,1,.15-.5c.08-.25.25-.37.61-.26a5.6,5.6,0,0,1-.05.69c-.14.94-.37,1.87-.43,2.82a3.24,3.24,0,0,0,.06,2,.25.25,0,0,1,0,.13,5,5,0,0,0-.51.16l-.85-.54A4.35,4.35,0,0,1,29.08,58.07Zm-1.9,3.78a13.3,13.3,0,0,1-.65-2.14,6.17,6.17,0,0,1,.65-.19v0l.38-.21a3.16,3.16,0,0,0,.74-.72s0,.07,0,.1a6,6,0,0,0,1.22,3.06,3.07,3.07,0,0,0-.36.2h0a2.43,2.43,0,0,1-1.45-1.62v0h0a.33.33,0,0,0-.13.13.18.18,0,0,1-.13.1c.13.38.27.75.39,1.1S27.33,62.25,27.18,61.85Zm-3.6,7a2.83,2.83,0,0,1-.06-.91.35.35,0,0,1-.05-.08l.28-.21h0a.18.18,0,0,0,.16.1h.29a4.88,4.88,0,0,0,.51,1.91,1.53,1.53,0,0,0,.52.89.89.89,0,0,0,1.15,0,1.65,1.65,0,0,0,.29-.3h0c0,.17,0,.34,0,.51a2,2,0,0,1-.52.69,1.37,1.37,0,0,1-.51.26.33.33,0,0,1-.39,0v0a1.52,1.52,0,0,1-1-.51A3.24,3.24,0,0,1,23.58,68.87Zm-2.28-.63a.46.46,0,0,1,.26-.3l.05,0,.34-.06a.94.94,0,0,1,.3-.07.1.1,0,0,1,.09.07,29.71,29.71,0,0,0,1.2,3.93s0,.09,0,.1c-.32.15-.64.29-1,.41s-.49.24-.74.35a.1.1,0,0,1-.14-.05s0,0,0-.06h0a.12.12,0,0,1-.09-.05A5.6,5.6,0,0,1,21,70.1,3.32,3.32,0,0,1,21.3,68.24ZM20,68.37l.84-.23c-.05.71-.08,1.32-.12,2C19.75,69.59,19.71,69.49,20,68.37Zm-.67.15c.08.67.15,1.28.23,1.9-.42.08-.63-.06-.68-.42s-.1-.69-.12-1S18.71,68.5,19.29,68.52ZM13.36,70.4l0-.33a.09.09,0,0,0,0-.09v0l.86-.28a4.16,4.16,0,0,1,1.8-.48.59.59,0,0,0,.41-.16,2.24,2.24,0,0,1,1.76-.44c.06.54.13,1.07.2,1.72l-.45,0a7.24,7.24,0,0,0,.31,1.3l.36.74a.09.09,0,0,1,0,.1v0a.08.08,0,0,1,0,.07h0a.14.14,0,0,0-.17-.07l-.1,0,0-.16a.09.09,0,0,1-.06-.06s0-.09,0-.14a6,6,0,0,1-.61-1.59l-.06-.2c-.36,0-.54.06-.64.19a5.1,5.1,0,0,0,.77,2.18s0,0,0,0l-.21.08-.25,0a.52.52,0,0,1-.14-.25,3.53,3.53,0,0,1-.62-1.24l0,0a.36.36,0,0,1,0-.1c-.07-.34,0-.74-.14-1.07s-.39-.36-.67-.28a.38.38,0,0,0-.15,0,.51.51,0,0,0-.18.09h0a.25.25,0,0,0-.16.34,1.43,1.43,0,0,0,0,.29,7.5,7.5,0,0,0,.4,1.6l0,.09,0,.05h0l0,0c.09.26.2.51.3.76a.3.3,0,0,1-.51,0c-.06-.12-.11-.24-.16-.36h0c-.09-.23-.46-.13-.37.1a6.11,6.11,0,0,0,.27.66l.1.19a.36.36,0,0,1-.33.2.35.35,0,0,1-.57,0l0,0-.12,0a.35.35,0,0,1-.63.16A3.83,3.83,0,0,1,13.36,70.4Zm-.68-2.59a4.56,4.56,0,0,0-1,.08,3.91,3.91,0,0,1-.34-.59l-.44-.63a2.8,2.8,0,0,0-.27-.4c-.1-.16-.2-.32-.29-.48l-.22,0-.21.07a0,0,0,0,1,0,0l.19.29a8.5,8.5,0,0,1,.58,2.28c-.65-.46-1.16-1.75-1.61-4,.25-.11.49-.21.74-.3a1.28,1.28,0,0,1,.39,0,.24.24,0,0,1,.05-.14l.51-.16c.68-.12,1.36-.29,2-.42A2,2,0,0,1,14,62.36l2.5-.68a13.18,13.18,0,0,0,.18,2.84c.36-.08.32-.3.32-.49,0-.45-.05-.9-.05-1.35a7.34,7.34,0,0,1,.09-.82.65.65,0,0,1,.76-.61c.13.66-.1,1.4.15,2a1.66,1.66,0,0,0,.29-.1h0V63.1c0-.55,0-1.1.05-1.64s.3-.65.79-.66a15,15,0,0,0,.07,3.35,2.2,2.2,0,0,1,.36,0c0-1,0-2,0-3,0-.33.05-.68.64-.59a5.44,5.44,0,0,0,.24,4l.2,0a17.27,17.27,0,0,1-.23-2.14,8.94,8.94,0,0,1,.25-1.7.42.42,0,0,1,.54-.39c0,.21,0,.42-.05.63-.07.62-.19,1.24-.21,1.87a3.26,3.26,0,0,0,.45,2,1.78,1.78,0,0,1,.22.46c-.69.16-1.37.36-2.05.53s-1.54.42-2.31.64c-.13-.18-.25-.35-.36-.53-.24-.39-.49-.74-1.05-.42a6.91,6.91,0,0,0-.29-1,.91.91,0,0,0-.15-.21l-.44.13a.93.93,0,0,0,0,.22c.16.68.32,1.36.49,2l.09.37-.07,0a.18.18,0,0,0-.16-.12,3.83,3.83,0,0,0-.9.13,1.62,1.62,0,0,1-.31-.43c-.28-.29-.34-.78-.64-1a3.38,3.38,0,0,1-.08-.34s0,0,0,0l-.91.15c0,.23,0,.47.09.71A4.54,4.54,0,0,0,12.68,67.81Zm-1.54-6.08c-.22-.56-.44-1.06-.62-1.58s.1-.82.82-.95l.87,2.23Zm-1.48.41-.15-.61c0-.5-.07-1-.1-1.46a.28.28,0,0,1,.16-.27c.44.72.39,1.48.78,2.22Zm.64,9a12.23,12.23,0,0,0,1.53-.67l.25-.1a.32.32,0,0,1,.22.48,2.58,2.58,0,0,0-.36.91,5.78,5.78,0,0,0,.24,1.65.28.28,0,0,1,0,.18h0a5.58,5.58,0,0,0,.28.67.34.34,0,0,1-.59.34l-.2-.34a.31.31,0,0,1-.46.15A2.8,2.8,0,0,1,10.3,71.14ZM8.68,72.91A2.16,2.16,0,0,1,9.1,71.5l.51-.16a.23.23,0,0,0,.14,0l.37-.13v0s0,0,0,0v.09a.06.06,0,0,1,0,0,.19.19,0,0,1,0,.07.21.21,0,0,1,0,.06l0,0a2.61,2.61,0,0,0-.71,1.51,11.21,11.21,0,0,0,.49,2.07.34.34,0,0,1-.62.26A3.78,3.78,0,0,1,8.68,72.91Zm-.29-17a5,5,0,0,1,.67-4.54c.48-.21.95-.47,1.45-.68l.58-.22a.13.13,0,0,0,.14-.05l.92-.31A4.28,4.28,0,0,0,12,52.28a6.27,6.27,0,0,0,.62,1.86c0,.07,0,.13,0,.2s0,.12,0,.18a4,4,0,0,1-.54.38.29.29,0,0,1-.25.13,1.27,1.27,0,0,1-1.17,0,1.38,1.38,0,0,1-.67-.84c0-.56,0-1.12,0-1.68,0-.26-.33-.26-.41-.06a6.44,6.44,0,0,0-.48,3.32.28.28,0,0,1-.12.12A.36.36,0,0,1,8.39,55.9Zm0,6.8a.28.28,0,0,1-.07.17L8.08,63l-.14,0a.24.24,0,0,1-.17-.22.22.22,0,0,1,0-.08c-.15.31-.69.13-.62-.26a.29.29,0,0,1,0-.09.31.31,0,0,1,0-.13A2.61,2.61,0,0,1,8.43,60a7.59,7.59,0,0,0,0,2.56S8.43,62.66,8.43,62.7ZM5.41,73a.16.16,0,0,1,0-.1,2.48,2.48,0,0,0,.44-.2l.08,0,0-.1c.17-.09.33-.19.5-.27h0a.27.27,0,0,0,.34,0A.48.48,0,0,1,7,72.29a.23.23,0,0,0,.23,0A3.19,3.19,0,0,0,8.11,72l.23-.08a3.87,3.87,0,0,0,0,3.8A.34.34,0,0,1,7.8,76l-.17-.3-.15.69a.35.35,0,0,1-.57.15l-.34-.39A.37.37,0,0,1,6.39,76l-.16-.33A5,5,0,0,1,5.41,73Zm.19-10,.08.07H5.61v0c0-.22-.09-.43-.15-.65l.23,0a2.74,2.74,0,0,1,0,.28,2,2,0,0,0,0,.25S5.6,63,5.6,63.05Zm-.25-1.76A6.84,6.84,0,0,1,5.4,58.4c0-.2,0-.41.08-.61a5.73,5.73,0,0,1,.68-1.46,4,4,0,0,1,.8-.54v.1c0,.22,0,.43,0,.65-.37.12-.63.65-.77,1,0,.1-.08.21-.11.31A.19.19,0,0,0,6,58a3.07,3.07,0,0,0-.07.53,4,4,0,0,0,.1,2,.19.19,0,0,0,.27.1l-.08.18-.19.14-.6.3a.15.15,0,0,0-.09.13ZM2.8,75.36c0-.11,0-.22,0-.33A.22.22,0,0,0,3,75a4,4,0,0,0,1.12,1.55.47.47,0,0,1,.51.34l.26.15c.13.06.25.15.42.25,0,0,0,.11-.08.16a.18.18,0,0,0-.25,0l-.64.89C3.27,78.07,2.8,76.47,2.8,75.36ZM.86,76.65a6.93,6.93,0,0,0,2.77,2.73c-.11.21-.21.41-.33.61A5.63,5.63,0,0,1,.86,76.65Z"/><path d="M60.7,43.71c-.78,0-1.57,0-2.35,0a.09.09,0,0,1,0-.17c.78,0,1.57,0,2.35,0A.12.12,0,0,1,60.7,43.71Z"/><path d="M61,44.31a5.44,5.44,0,0,1-2.23-.21.06.06,0,0,1,0-.12c.74.12,1.44.1,2.17.15C61.11,44.13,61.15,44.29,61,44.31Z"/><path d="M59.42,45a.12.12,0,0,1,0-.23,4.45,4.45,0,0,1,1.78,0c.08,0,.08.16,0,.18A4.64,4.64,0,0,1,59.42,45Z"/><path d="M58.61,43.27a4.35,4.35,0,0,1-.76-.28,2,2,0,0,1-.7-.4c-.08-.1,0-.31.12-.29a2,2,0,0,1,.73.34,5,5,0,0,1,.69.49A.08.08,0,0,1,58.61,43.27Z"/><path d="M65.83,54.55a3.39,3.39,0,0,0,0,.64,3.35,3.35,0,0,0,.19.56c.08.24-.27.32-.36.1a2.32,2.32,0,0,1-.09-1.33C65.63,54.4,65.83,54.43,65.83,54.55Z"/><path d="M60.13,49.22a.15.15,0,0,1,.3,0,26.67,26.67,0,0,1,.11,2.83.17.17,0,0,1-.34,0C60.11,51.12,60.13,50.15,60.13,49.22Z"/><path d="M61.27,49.38a14.05,14.05,0,0,0,0,2c.06.68.24,1.34.29,2,0,.14-.21.2-.26.08A8.32,8.32,0,0,1,61,49.38C61,49.18,61.28,49.17,61.27,49.38Z"/><path d="M59.37,49.38a.16.16,0,1,1,.31,0q0,.46,0,.93a2.11,2.11,0,0,1,0,.83.15.15,0,0,1-.29,0,2.31,2.31,0,0,1,0-.83C59.35,50,59.35,49.69,59.37,49.38Z"/><path d="M100.48,72.61h1.14l-2.73,3.08,3,3.32h-1.22l-2.89-3.25V79h-1v-6.4h1v3.11Z"/><path d="M111.1,75.8a3.54,3.54,0,0,1-.79,2.45,2.82,2.82,0,0,1-2.19.88,2.9,2.9,0,0,1-1.54-.41,2.65,2.65,0,0,1-1-1.16,3.93,3.93,0,0,1-.37-1.76,3.5,3.5,0,0,1,.79-2.44,3.12,3.12,0,0,1,4.34,0A3.49,3.49,0,0,1,111.1,75.8Zm-4.83,0a3,3,0,0,0,.47,1.83,1.66,1.66,0,0,0,1.41.63,1.64,1.64,0,0,0,1.39-.63A3,3,0,0,0,110,75.8a2.91,2.91,0,0,0-.48-1.82,1.7,1.7,0,0,0-1.41-.61Q106.27,73.37,106.27,75.8Z"/><path d="M116.46,72.61v2.66h3.48V72.61h1V79h-1V76.16h-3.48V79h-1v-6.4Z"/><path d="M128.24,79.13a2.79,2.79,0,0,1-2.16-.85,3.53,3.53,0,0,1-.77-2.44,3.6,3.6,0,0,1,.78-2.48,2.83,2.83,0,0,1,2.22-.87,4.05,4.05,0,0,1,.92.1,2.6,2.6,0,0,1,.76.25l-.32.87a4.1,4.1,0,0,0-1.38-.3,1.67,1.67,0,0,0-1.43.61,3,3,0,0,0-.46,1.81,2.91,2.91,0,0,0,.46,1.78,1.59,1.59,0,0,0,1.36.61,3.89,3.89,0,0,0,1.66-.37v.93A3.52,3.52,0,0,1,128.24,79.13Z"/><path d="M138,79l-.2-.91h-.05a2.64,2.64,0,0,1-.95.81,3,3,0,0,1-1.2.22,2.1,2.1,0,0,1-1.48-.5,1.81,1.81,0,0,1-.54-1.4c0-1.3,1-2,3.08-2l1.08,0v-.38a1.55,1.55,0,0,0-.31-1.07,1.28,1.28,0,0,0-1-.35,3,3,0,0,0-1,.15,6.55,6.55,0,0,0-.85.34l-.32-.79a4.86,4.86,0,0,1,1.05-.4,4.52,4.52,0,0,1,1.14-.15,2.46,2.46,0,0,1,1.72.52,2.08,2.08,0,0,1,.57,1.63V79Zm-2.16-.73a1.94,1.94,0,0,0,1.38-.47,1.76,1.76,0,0,0,.51-1.35v-.58l-.95,0a3.38,3.38,0,0,0-1.6.35,1.06,1.06,0,0,0-.51,1A1,1,0,0,0,135,78,1.25,1.25,0,0,0,135.84,78.28Z"/><path d="M148.27,79h-1.06V73.48h-1.89a22.92,22.92,0,0,1-.44,3.3,4.32,4.32,0,0,1-.72,1.75,1.38,1.38,0,0,1-1.14.56,1.45,1.45,0,0,1-.55-.08v-.79a.93.93,0,0,0,.32,0c.43,0,.77-.45,1-1.35a24.21,24.21,0,0,0,.59-4.31h3.86Z"/><path d="M157.37,73.49h-2.09V79h-1V73.49h-2.06v-.88h5.19Z"/><path d="M162.28,72.61v3.9l-.05,1.13,0,.33,3.42-5.36h1.29V79h-1V75.24l0-.81,0-.77L162.59,79h-1.3v-6.4Z"/><path d="M172.66,72.61v2.66h3.48V72.61h1.05V79h-1.05V76.16h-3.48V79h-1v-6.4Z"/><path d="M185.78,73.49h-2.86V79h-1v-6.4h3.91Z"/><path d="M195.19,75.8a3.54,3.54,0,0,1-.79,2.45,2.82,2.82,0,0,1-2.19.88,2.93,2.93,0,0,1-1.54-.41,2.65,2.65,0,0,1-1-1.16,4.07,4.07,0,0,1-.36-1.76,3.54,3.54,0,0,1,.78-2.44,2.79,2.79,0,0,1,2.19-.87,2.75,2.75,0,0,1,2.15.89A3.49,3.49,0,0,1,195.19,75.8Zm-4.83,0a3,3,0,0,0,.48,1.83,1.86,1.86,0,0,0,2.79,0,3,3,0,0,0,.48-1.83,2.91,2.91,0,0,0-.48-1.82,1.7,1.7,0,0,0-1.41-.61Q190.36,73.37,190.36,75.8Z"/><path d="M204.77,74.22a1.21,1.21,0,0,1-.35.94,1.85,1.85,0,0,1-1,.44v.06a2,2,0,0,1,1.18.48,1.32,1.32,0,0,1,.37,1,1.64,1.64,0,0,1-.66,1.4,3.28,3.28,0,0,1-1.92.48h-2.88v-6.4h2.86C204,72.61,204.77,73.15,204.77,74.22Zm-1,.1a.66.66,0,0,0-.34-.64,2.19,2.19,0,0,0-1.05-.2h-1.8v1.76h1.61a2.44,2.44,0,0,0,1.22-.22A.74.74,0,0,0,203.74,74.32Zm.18,2.75a.78.78,0,0,0-.42-.75,2.83,2.83,0,0,0-1.23-.21h-1.72v2h1.75C203.38,78.16,203.92,77.8,203.92,77.07Z"/><path d="M214.6,75.8a3.54,3.54,0,0,1-.8,2.45,2.82,2.82,0,0,1-2.19.88,2.93,2.93,0,0,1-1.54-.41,2.71,2.71,0,0,1-1-1.16,4.07,4.07,0,0,1-.36-1.76,3.54,3.54,0,0,1,.78-2.44,2.79,2.79,0,0,1,2.19-.87,2.75,2.75,0,0,1,2.15.89A3.5,3.5,0,0,1,214.6,75.8Zm-4.84,0a3,3,0,0,0,.48,1.83,1.86,1.86,0,0,0,2.79,0,3,3,0,0,0,.48-1.83A2.91,2.91,0,0,0,213,74a1.7,1.7,0,0,0-1.41-.61Q209.76,73.37,209.76,75.8Z"/><path d="M221.63,79.13a2.93,2.93,0,0,1-2.26-.88,3.38,3.38,0,0,1-.82-2.39,3.72,3.72,0,0,1,.77-2.46,2.55,2.55,0,0,1,2.06-.91,2.49,2.49,0,0,1,1.92.78,3,3,0,0,1,.72,2.11V76h-4.38a2.47,2.47,0,0,0,.55,1.66,1.92,1.92,0,0,0,1.49.56,5.07,5.07,0,0,0,1-.09,5.13,5.13,0,0,0,1.08-.35v.92a5.21,5.21,0,0,1-1,.32A5.82,5.82,0,0,1,221.63,79.13Zm-.26-5.78a1.53,1.53,0,0,0-1.19.48,2.27,2.27,0,0,0-.52,1.35h3.26a2.06,2.06,0,0,0-.42-1.36A1.37,1.37,0,0,0,221.37,73.35Z"/><path d="M238,79l-.2-.91h0a2.56,2.56,0,0,1-1,.81,3,3,0,0,1-1.2.22,2.1,2.1,0,0,1-1.48-.5,1.8,1.8,0,0,1-.53-1.4c0-1.3,1-2,3.07-2l1.08,0v-.38a1.55,1.55,0,0,0-.31-1.07,1.28,1.28,0,0,0-1-.35,3,3,0,0,0-1,.15,7.17,7.17,0,0,0-.85.34l-.32-.79a5,5,0,0,1,1.06-.4,4.39,4.39,0,0,1,1.13-.15,2.44,2.44,0,0,1,1.72.52,2.08,2.08,0,0,1,.57,1.63V79Zm-2.16-.73a2,2,0,0,0,1.39-.47,1.8,1.8,0,0,0,.5-1.35v-.58l-.94,0a3.43,3.43,0,0,0-1.61.35,1,1,0,0,0-.5,1,1,1,0,0,0,.3.77A1.27,1.27,0,0,0,235.83,78.28Z"/><path d="M247.3,73.49h-2.86V79h-1.05v-6.4h3.91Z"/><path d="M253.88,79.13a2.92,2.92,0,0,1-2.26-.88,3.34,3.34,0,0,1-.82-2.39,3.71,3.71,0,0,1,.76-2.46,2.58,2.58,0,0,1,2.07-.91,2.49,2.49,0,0,1,1.92.78,3,3,0,0,1,.72,2.11V76h-4.39a2.47,2.47,0,0,0,.56,1.66,1.9,1.9,0,0,0,1.48.56,5.18,5.18,0,0,0,1-.09,5.26,5.26,0,0,0,1.07-.35v.92a4.92,4.92,0,0,1-1,.32A5.82,5.82,0,0,1,253.88,79.13Zm-.27-5.78a1.54,1.54,0,0,0-1.19.48,2.26,2.26,0,0,0-.51,1.35h3.25a2,2,0,0,0-.41-1.36A1.4,1.4,0,0,0,253.61,73.35Z"/><path d="M261.59,72.61v2.66h3.47V72.61h1.05V79h-1.05V76.16h-3.47V79h-1v-6.4Z"/><path d="M275.21,73.49h-2.09V79h-1V73.49H270v-.88h5.19Z"/><path d="M281.64,79.13a2.79,2.79,0,0,1-2.16-.85,3.53,3.53,0,0,1-.77-2.44,3.6,3.6,0,0,1,.78-2.48,2.83,2.83,0,0,1,2.22-.87,4.05,4.05,0,0,1,.92.1,2.6,2.6,0,0,1,.76.25l-.32.87a4.1,4.1,0,0,0-1.38-.3,1.67,1.67,0,0,0-1.43.61,3,3,0,0,0-.46,1.81,2.91,2.91,0,0,0,.46,1.78,1.59,1.59,0,0,0,1.36.61,3.89,3.89,0,0,0,1.66-.37v.93A3.52,3.52,0,0,1,281.64,79.13Z"/><path d="M291.87,73.49h-2.09V79h-1V73.49h-2.06v-.88h5.19Z"/><path d="M301.05,74.22a1.21,1.21,0,0,1-.35.94,1.85,1.85,0,0,1-1,.44v.06a2,2,0,0,1,1.18.48,1.32,1.32,0,0,1,.37,1,1.64,1.64,0,0,1-.66,1.4,3.29,3.29,0,0,1-1.93.48h-2.88v-6.4h2.87C300.25,72.61,301.05,73.15,301.05,74.22Zm-1,.1a.66.66,0,0,0-.34-.64,2.22,2.22,0,0,0-1.05-.2h-1.8v1.76h1.61a2.44,2.44,0,0,0,1.22-.22A.74.74,0,0,0,300,74.32Zm.18,2.75a.78.78,0,0,0-.42-.75,2.83,2.83,0,0,0-1.23-.21h-1.72v2h1.75C299.66,78.16,300.2,77.8,300.2,77.07Z"/><path d="M310.88,75.8a3.54,3.54,0,0,1-.8,2.45,2.82,2.82,0,0,1-2.19.88,2.93,2.93,0,0,1-1.54-.41,2.65,2.65,0,0,1-1-1.16A4.07,4.07,0,0,1,305,75.8a3.54,3.54,0,0,1,.78-2.44,2.79,2.79,0,0,1,2.19-.87,2.75,2.75,0,0,1,2.15.89A3.5,3.5,0,0,1,310.88,75.8Zm-4.84,0a3,3,0,0,0,.48,1.83,1.86,1.86,0,0,0,2.79,0,3,3,0,0,0,.48-1.83,2.91,2.91,0,0,0-.48-1.82,1.7,1.7,0,0,0-1.41-.61Q306,73.37,306,75.8Z"/></g></g></svg>